<svg width="121" height="75" viewBox="0 0 121 75" fill="none" xmlns="http://www.w3.org/2000/svg">
<path d="M41.8139 71.2541H99.3657C99.7474 71.2541 100.146 71.2541 100.521 71.295V71.2541C109.92 71.2541 117.567 63.6069 117.567 54.208C117.567 44.8058 109.92 37.162 100.521 37.162C99.185 37.162 97.8048 37.3357 96.411 37.6766C95.9544 37.7925 95.4705 37.7107 95.0786 37.4517C94.6901 37.1894 94.4242 36.7769 94.3527 36.3168C92.4477 24.1815 82.1526 15.379 69.8707 15.379C56.195 15.379 45.065 26.5057 45.065 40.1848C45.065 40.8595 45.1163 41.5241 45.1672 42.1852C45.2046 42.6793 45.0206 43.17 44.6663 43.5142C44.3085 43.8652 43.8143 44.0357 43.3201 43.9812C42.826 43.9302 42.3217 43.8958 41.8139 43.8958C34.2689 43.8958 28.1314 50.0334 28.1314 57.5749C28.1314 65.1165 34.2689 71.2539 41.8139 71.2539V71.2541ZM41.722 40.5493C41.722 40.4302 41.7193 40.3071 41.7193 40.1846C41.7193 24.6584 54.3522 12.0289 69.8716 12.0289C83.2269 12.0289 94.5103 21.1996 97.3354 34.0744C98.4089 33.9008 99.4755 33.812 100.522 33.812C111.764 33.812 120.918 42.9621 120.918 54.208C120.918 65.4539 111.764 74.6007 100.512 74.6007H85.2989H41.8147C32.4261 74.6007 24.7857 66.9636 24.7857 57.5749C24.7857 48.217 32.375 40.5971 41.7227 40.5493" fill="#000119"/>
<path d="M21.3103 22.5325C22.3599 22.5325 23.4231 22.6211 24.5 22.7948C27.3285 9.91989 38.6085 0.74939 51.9571 0.74939C57.7675 0.74939 63.3495 2.50773 68.0966 5.83038C68.8497 6.3586 69.0338 7.40492 68.5056 8.16146C67.9672 8.91801 66.9346 9.10202 66.1712 8.5738C61.9932 5.64305 57.0791 4.09251 51.9571 4.09251C39.682 4.09251 29.3869 12.9018 27.4853 25.0371C27.4068 25.5006 27.1445 25.9094 26.7526 26.1718C26.3641 26.4308 25.887 26.5127 25.4235 26.4036C24.0331 26.056 22.6496 25.8788 21.3103 25.8788C11.9149 25.8788 4.26423 33.5295 4.26423 42.9284C4.26423 51.6968 10.8345 58.9861 19.5381 59.8824C20.4583 59.9811 21.1263 60.8025 21.0342 61.7226C20.9456 62.5848 20.2197 63.222 19.3712 63.222C19.3098 63.222 19.252 63.2193 19.194 63.2165C8.77616 62.1397 0.917694 53.419 0.917694 42.9297C0.917694 31.6838 10.0644 22.5337 21.3103 22.5337" fill="#000119"/>
</svg>
