<svg width="121" height="103" viewBox="0 0 121 103" fill="none" xmlns="http://www.w3.org/2000/svg">
<path d="M43.354 96.493C42.9296 96.0686 42.2469 96.0686 41.8256 96.493L40.654 97.6615L39.4793 96.493C39.0611 96.0686 38.3784 96.0686 37.9571 96.493C37.5327 96.9112 37.5327 97.5939 37.9571 98.0183L39.1257 99.1899L37.9571 100.362C37.5327 100.783 37.5327 101.465 37.9571 101.89C38.1662 102.099 38.4399 102.204 38.7167 102.204C38.9934 102.204 39.2671 102.099 39.4793 101.89L40.654 100.715L41.8256 101.89C42.0377 102.099 42.3146 102.204 42.5883 102.204C42.8681 102.204 43.1418 102.099 43.354 101.89C43.7784 101.465 43.7784 100.783 43.354 100.362L42.1793 99.1899L43.354 98.0183C43.7784 97.5939 43.7784 96.9112 43.354 96.493Z" fill="#000119"/>
<path d="M79.3358 96.493C78.9145 96.0686 78.2349 96.0686 77.8136 96.493L76.6358 97.6615L75.4642 96.493C75.0429 96.0686 74.3602 96.0686 73.9389 96.493C73.5114 96.9112 73.5114 97.5939 73.9389 98.0183L75.1105 99.1899L73.9389 100.362C73.5114 100.783 73.5114 101.465 73.9389 101.89C74.148 102.099 74.4248 102.204 74.7016 102.204C74.9753 102.204 75.252 102.099 75.4642 101.89L76.6358 100.715L77.8136 101.89C78.0227 102.099 78.2995 102.204 78.5763 102.204C78.853 102.204 79.1267 102.099 79.3358 101.89C79.7571 101.465 79.7571 100.783 79.3358 100.362L78.1611 99.1899L79.3358 98.0183C79.7571 97.5939 79.7571 96.9112 79.3358 96.493Z" fill="#000119"/>
<path d="M35.1762 78.5013C34.429 78.1292 33.5218 78.4304 33.1497 79.1747L22.971 99.5291C22.5958 100.279 22.9003 101.184 23.6475 101.559C23.8627 101.667 24.0934 101.715 24.3209 101.715C24.8744 101.715 25.4065 101.414 25.6709 100.882L35.8497 80.5276C36.2249 79.7803 35.9206 78.8732 35.1762 78.5011" fill="#000119"/>
<path d="M69.126 78.5013C68.3818 78.1292 67.4746 78.4304 67.0995 79.1747L56.9237 99.5291C56.5486 100.279 56.8529 101.184 57.5972 101.559C57.8125 101.667 58.0431 101.715 58.2737 101.715C58.8273 101.715 59.3562 101.414 59.6237 100.882L69.8025 80.5276C70.1777 79.7803 69.8702 78.8732 69.126 78.5011" fill="#000119"/>
<path d="M103.076 78.5013C102.328 78.1292 101.421 78.4304 101.046 79.1747L90.8704 99.5291C90.4983 100.279 90.7996 101.184 91.5439 101.559C91.7623 101.667 91.9928 101.715 92.2204 101.715C92.7739 101.715 93.3059 101.414 93.5735 100.882L103.752 80.5276C104.124 79.7803 103.82 78.8732 103.076 78.5011" fill="#000119"/>
<path d="M41.4515 70.507H99.003C99.3874 70.507 99.7841 70.507 100.156 70.5468V70.507C109.554 70.507 117.202 62.8591 117.202 53.4584C117.202 44.0576 109.554 36.4127 100.156 36.4127C98.8277 36.4127 97.4408 36.5849 96.0416 36.9324C95.5896 37.0463 95.1099 36.9632 94.7132 36.7019C94.3226 36.4436 94.0582 36.0316 93.9874 35.5672C92.0839 23.4357 81.7883 14.6284 69.5123 14.6284C55.837 14.6284 44.7019 25.7574 44.7019 39.4388C44.7019 40.1123 44.7481 40.7765 44.8032 41.4315C44.8495 41.9297 44.665 42.4217 44.3051 42.7692C43.9483 43.1198 43.4502 43.2858 42.9581 43.2335C42.46 43.1811 41.9618 43.1506 41.4513 43.1506C33.9079 43.1506 27.7761 49.2855 27.7761 56.8289C27.7761 64.3723 33.9079 70.5072 41.4513 70.5072L41.4515 70.507ZM41.3623 39.8019C41.3573 39.6821 41.3573 39.559 41.3573 39.4389C41.3573 23.9156 53.987 11.2828 69.5135 11.2828C82.8596 11.2828 94.1455 20.4529 96.9746 33.3286C98.0479 33.1534 99.118 33.0642 100.157 33.0642C111.4 33.0642 120.555 42.2127 120.555 53.4585C120.555 64.7044 111.4 73.8531 100.151 73.8531H84.9385H41.4527C32.0642 73.8531 24.4255 66.2174 24.4255 56.8289C24.4255 47.4712 32.012 39.8511 41.3635 39.8019" fill="#000119"/>
<path d="M20.9524 21.7867C21.998 21.7867 23.062 21.8728 24.1352 22.0481C26.9644 9.17242 38.2441 0.00231934 51.5964 0.00231934C57.4084 0.00231934 62.9898 1.75824 67.7348 5.08248C68.4851 5.61449 68.6727 6.65684 68.1438 7.41333C67.6087 8.16982 66.5693 8.35443 65.8067 7.8255C61.6337 4.89488 56.7196 3.34805 51.5964 3.34805C39.3204 3.34805 29.0247 12.1553 27.1212 24.2867C27.0474 24.7511 26.7829 25.1632 26.3955 25.4246C25.9988 25.6829 25.5221 25.7628 25.0609 25.6521C23.6678 25.3077 22.2871 25.1324 20.9524 25.1324C11.5517 25.1324 3.90072 32.7803 3.90072 42.1811C3.90072 50.9483 10.4723 58.2396 19.1812 59.1375C20.1006 59.2327 20.7648 60.054 20.6695 60.9735C20.5805 61.8345 19.8546 62.4741 19.0059 62.4741C18.9535 62.4741 18.8922 62.4716 18.8337 62.4691C8.41195 61.3928 0.554947 52.6718 0.554947 42.1824C0.554947 30.9366 9.70352 21.7879 20.9524 21.7879" fill="#000119"/>
</svg>
