<svg width="121" height="117" viewBox="0 0 121 117" fill="none" xmlns="http://www.w3.org/2000/svg">
<path d="M33.923 76.3802C34.034 76.1582 34.0831 75.9232 34.0928 75.6882L33.923 76.3802ZM58.0822 76.3802C58.1932 76.1582 58.2454 75.9265 58.2553 75.6915Z" fill="#000119"/>
<path d="M41.0301 70.7927H98.5852C98.9704 70.7927 99.3686 70.7927 99.7407 70.8319V70.7927C109.141 70.7927 116.791 63.1422 116.791 53.7423C116.791 44.3424 109.141 36.6951 99.7407 36.6951C98.4123 36.6951 97.0251 36.8679 95.6314 37.214C95.1745 37.3281 94.6914 37.2466 94.2998 36.9855C93.9081 36.7244 93.6437 36.3131 93.5752 35.8497C91.6691 23.7146 81.3748 14.912 69.0962 14.912C55.4173 14.912 44.2842 26.0418 44.2842 39.7207C44.2842 40.3963 44.3333 41.0589 44.3853 41.7149C44.431 42.211 44.2448 42.7039 43.8892 43.0531C43.5334 43.3991 43.034 43.5687 42.5412 43.5198C42.0451 43.4644 41.5392 43.4318 41.03 43.4318C33.4905 43.4318 27.3544 49.5678 27.3544 57.1139C27.3544 64.6567 33.4905 70.7928 41.03 70.7928L41.0301 70.7927ZM40.942 40.0831V39.7207C40.942 24.1978 53.5699 11.5635 69.0962 11.5635C82.4454 11.5635 93.7286 20.7348 96.5584 33.6075C97.6355 33.4346 98.6962 33.3433 99.7407 33.3433C110.991 33.3433 120.137 42.4952 120.137 53.7425C120.137 64.9898 110.991 74.1383 99.7341 74.1383H84.5212H41.0301C31.6432 74.1383 24.0058 66.5008 24.0058 57.1139C24.0058 47.7499 31.591 40.1321 40.942 40.0831" fill="#000119"/>
<path d="M20.5324 22.067C21.5768 22.067 22.6409 22.1519 23.7179 22.3314C26.5444 9.45214 37.8277 0.28064 51.1801 0.28064C56.9898 0.28064 62.5711 2.03997 67.3135 5.36259C68.0707 5.8946 68.2567 6.93574 67.7247 7.69622C67.1927 8.45018 66.1515 8.63622 65.3943 8.10421C61.2165 5.17652 56.3012 3.63264 51.1801 3.63264C38.9015 3.63264 28.6072 12.4354 26.7044 24.5705C26.6261 25.0307 26.3617 25.4419 25.9733 25.703C25.5816 25.9607 25.1018 26.0457 24.6449 25.9349C23.2479 25.5889 21.8673 25.4126 20.5324 25.4126C11.1324 25.4126 3.48194 33.0632 3.48194 42.4631C3.48194 51.2332 10.0488 58.5213 18.7568 59.4189C19.6773 59.5136 20.3464 60.3394 20.2517 61.2565C20.1635 62.1182 19.4357 62.7578 18.5871 62.7578C18.5315 62.7578 18.473 62.7579 18.4143 62.7527C7.99275 61.6789 0.136612 52.9545 0.136612 42.4644C0.136612 31.2204 9.28524 22.0684 20.5325 22.0684" fill="#000119"/>
<path d="M35.9728 90.1177C35.9728 93.1923 33.4694 95.6924 30.3948 95.6924C27.3137 95.6924 24.8201 93.1923 24.8201 90.1177C24.8201 87.0464 27.3137 84.5432 30.3948 84.5432C33.4694 84.5432 35.9728 87.0464 35.9728 90.1177Z" fill="#000119"/>
<path d="M24.0981 110.639C24.0981 113.714 21.5947 116.214 18.5202 116.214C15.4391 116.214 12.9455 113.714 12.9455 110.639C12.9455 107.568 15.4391 105.065 18.5202 105.065C21.5947 105.065 24.0981 107.568 24.0981 110.639Z" fill="#000119"/>
<path d="M67.0432 90.1177C67.0432 93.1923 64.5399 95.6924 61.4653 95.6924C58.3842 95.6924 55.8906 93.1923 55.8906 90.1177C55.8906 87.0464 58.3842 84.5432 61.4653 84.5432C64.5399 84.5432 67.0432 87.0464 67.0432 90.1177Z" fill="#000119"/>
<path d="M55.1686 110.639C55.1686 113.714 52.6652 116.214 49.5907 116.214C46.5096 116.214 44.016 113.714 44.016 110.639C44.016 107.568 46.5096 105.065 49.5907 105.065C52.6652 105.065 55.1686 107.568 55.1686 110.639Z" fill="#000119"/>
<path d="M97.8587 90.1177C97.8587 93.1923 95.3553 95.6924 92.2808 95.6924C89.1997 95.6924 86.7061 93.1923 86.7061 90.1177C86.7061 87.0464 89.1997 84.5432 92.2808 84.5432C95.3553 84.5432 97.8587 87.0464 97.8587 90.1177Z" fill="#000119"/>
<path d="M85.9841 110.639C85.9841 113.714 83.4807 116.214 80.4061 116.214C77.3251 116.214 74.8315 113.714 74.8315 110.639C74.8315 107.568 77.3251 105.065 80.4061 105.065C83.4807 105.065 85.9841 107.568 85.9841 110.639Z" fill="#000119"/>
</svg>
