<svg width="121" height="122" viewBox="0 0 121 122" fill="none" xmlns="http://www.w3.org/2000/svg">
<path d="M41.0194 71.4861H98.5711C98.9541 71.4861 99.3533 71.4861 99.7266 71.5251V71.4861C109.126 71.4861 116.776 63.8393 116.776 54.44C116.776 45.0373 109.126 37.3907 99.7266 37.3907C98.3926 37.3907 97.0066 37.5658 95.6142 37.9099C95.1598 38.0233 94.6764 37.9392 94.2836 37.6793C93.8942 37.4196 93.6279 37.0075 93.5565 36.5466C91.6546 24.4112 81.3562 15.6057 69.0812 15.6057C55.4008 15.6057 44.2683 26.7351 44.2683 40.4187C44.2683 41.0906 44.3202 41.7558 44.3755 42.4114C44.411 42.9113 44.2293 43.4014 43.8724 43.7487C43.5186 44.096 43.0188 44.2648 42.5287 44.2129C42.0321 44.1609 41.529 44.1284 41.0195 44.1284C33.4766 44.1284 27.3391 50.266 27.3391 57.8056C27.3391 65.3485 33.4766 71.4859 41.0195 71.4859L41.0194 71.4861ZM40.9255 40.7821C40.9255 40.6588 40.9229 40.539 40.9229 40.4187C40.9229 24.8916 53.5581 12.2595 69.0821 12.2595C82.4314 12.2595 93.7166 21.4285 96.5435 34.3072C97.6146 34.1319 98.6823 34.0409 99.7274 34.0409C110.974 34.0409 120.123 43.1937 120.123 54.4398C120.123 65.686 110.974 74.8354 99.7177 74.8354H84.5054H41.0202C31.6306 74.8354 23.9936 67.1952 23.9936 57.8056C23.9936 48.4484 31.5787 40.8308 40.9261 40.7821" fill="#000119"/>
<path d="M20.5186 22.7634C21.5669 22.7634 22.6315 22.8509 23.7026 23.0263C26.5328 10.1509 37.8146 0.978638 51.1639 0.978638C56.9769 0.978638 62.5562 2.73783 67.3013 6.06136C68.0543 6.59365 68.2392 7.63556 67.7102 8.39179C67.1779 9.15127 66.1361 9.33303 65.3766 8.80399C61.1995 5.87318 56.2855 4.32491 51.1639 4.32491C38.8889 4.32491 28.5905 13.1336 26.6886 25.2658C26.6138 25.7332 26.3478 26.1421 25.9583 26.4018C25.5721 26.6614 25.0917 26.7458 24.6308 26.6324C23.2352 26.2851 21.8558 26.1099 20.5186 26.1099C11.1192 26.1099 3.46923 33.7598 3.46923 43.1591C3.46923 51.9256 10.0384 59.2154 18.7465 60.1144C19.665 60.2118 20.3336 61.0362 20.2395 61.9547C20.1486 62.8148 19.4216 63.4574 18.5745 63.4574C18.5194 63.4574 18.4576 63.4549 18.4026 63.4471C7.98083 62.3695 0.123108 53.6484 0.123108 43.1585C0.123108 31.9124 9.2726 22.7629 20.5188 22.7629" fill="#000119"/>
<path d="M39.8105 88.2384C38.8581 88.2407 38.0893 89.0094 38.087 89.9618V92.6149H35.434C34.4838 92.6149 33.7126 93.3861 33.7104 94.3385C33.7126 95.291 34.4838 96.062 35.434 96.062H38.087L38.0847 98.7129C38.0847 99.663 38.8558 100.434 39.8082 100.436C40.2856 100.436 40.7193 100.241 41.0291 99.9314C41.3413 99.6193 41.5341 99.1879 41.5318 98.7129L41.534 96.062L44.1848 96.0598C44.6622 96.0598 45.0913 95.8691 45.4035 95.5571C45.7156 95.2449 45.9084 94.8135 45.9084 94.3362C45.9061 93.3837 45.135 92.6127 44.1848 92.6127L41.534 92.6149V89.9618C41.534 89.0117 40.7629 88.2407 39.8105 88.2384" fill="#000119"/>
<path d="M70.9687 88.2384C70.0162 88.2407 69.2474 89.0094 69.2451 89.9618V92.6149H66.5921C65.642 92.6149 64.8708 93.3861 64.8685 94.3385C64.8708 95.291 65.642 96.062 66.5921 96.062H69.2451L69.2428 98.7129C69.2428 99.663 70.0139 100.434 70.9664 100.436C71.4437 100.436 71.8775 100.241 72.1873 99.9314C72.4994 99.6193 72.6922 99.1879 72.6899 98.7129L72.6922 96.062L75.343 96.0598C75.8204 96.0598 76.2495 95.8691 76.5616 95.5571C76.8737 95.2449 77.0665 94.8135 77.0665 94.3362C77.0642 93.3837 76.2931 92.6127 75.343 92.6127L72.6922 92.6149V89.9618C72.6922 89.0117 71.9211 88.2407 70.9687 88.2384" fill="#000119"/>
<path d="M102.127 88.2384C101.174 88.2407 100.406 89.0094 100.403 89.9618V92.6149H97.7502C96.8 92.6149 96.029 93.3861 96.0267 94.3385C96.029 95.291 96.8 96.062 97.7502 96.062H100.403L100.401 98.7129C100.401 99.663 101.172 100.434 102.125 100.436C102.602 100.436 103.036 100.241 103.345 99.9314C103.658 99.6193 103.85 99.1879 103.848 98.7129L103.85 96.062L106.501 96.0598C106.978 96.0598 107.408 95.8691 107.72 95.5571C108.032 95.2449 108.225 94.8135 108.225 94.3362C108.222 93.3837 107.451 92.6127 106.501 92.6127L103.85 92.6149V89.9618C103.85 89.0117 103.079 88.2407 102.127 88.2384Z" fill="#000119"/>
<path d="M24.2314 109.01C23.279 109.013 22.5102 109.782 22.5079 110.734V113.387H19.8549C18.9048 113.387 18.1336 114.158 18.1313 115.111C18.1336 116.063 18.9048 116.834 19.8549 116.834H22.5079L22.5056 119.485C22.5056 120.435 23.2767 121.206 24.2291 121.208C24.7065 121.208 25.1402 121.013 25.4501 120.704C25.7622 120.391 25.955 119.96 25.9527 119.485L25.955 116.834L28.6058 116.832C29.0831 116.832 29.5123 116.641 29.8244 116.329C30.1365 116.017 30.3293 115.586 30.3293 115.108C30.327 114.156 29.5559 113.385 28.6058 113.385L25.955 113.387V110.734C25.955 109.784 25.1839 109.013 24.2314 109.01" fill="#000119"/>
<path d="M55.3896 109.01C54.4372 109.013 53.6684 109.782 53.6661 110.734V113.387H51.0131C50.0629 113.387 49.2917 114.158 49.2894 115.111C49.2917 116.063 50.0629 116.834 51.0131 116.834H53.6661L53.6638 119.485C53.6638 120.435 54.4349 121.206 55.3873 121.208C55.8647 121.208 56.2984 121.013 56.6082 120.704C56.9203 120.391 57.1131 119.96 57.1108 119.485L57.1131 116.834L59.7639 116.832C60.2413 116.832 60.6704 116.641 60.9825 116.329C61.2947 116.017 61.4875 115.586 61.4875 115.108C61.4852 114.156 60.7141 113.385 59.7639 113.385L57.1131 113.387V110.734C57.1131 109.784 56.342 109.013 55.3896 109.01" fill="#000119"/>
<path d="M86.5477 109.01C85.5953 109.013 84.8265 109.782 84.8242 110.734V113.387H82.1712C81.2211 113.387 80.4499 114.158 80.4476 115.111C80.4499 116.063 81.2211 116.834 82.1712 116.834H84.8242L84.8219 119.485C84.8219 120.435 85.593 121.206 86.5454 121.208C87.0228 121.208 87.4565 121.013 87.7664 120.704C88.0785 120.391 88.2713 119.96 88.269 119.485L88.2713 116.834L90.9221 116.832C91.3994 116.832 91.8286 116.641 92.1407 116.329C92.4528 116.017 92.6456 115.586 92.6456 115.108C92.6433 114.156 91.8722 113.385 90.9221 113.385L88.2713 113.387V110.734C88.2713 109.784 87.5002 109.013 86.5477 109.01" fill="#000119"/>
</svg>
