<svg width="121" height="107" viewBox="0 0 121 107" fill="none" xmlns="http://www.w3.org/2000/svg">
<path d="M14.2115 81.5617C13.4015 81.1615 12.4202 81.4854 12.0136 82.2921L0.970283 104.379C0.566918 105.186 0.893998 106.17 1.70391 106.577C1.93894 106.694 2.18986 106.752 2.43442 106.752C3.03789 106.752 3.61597 106.418 3.90182 105.846L14.9452 83.7564C15.3485 82.9497 15.0214 81.9652 14.2115 81.5618" fill="#000119"/>
<path d="M32.6306 81.5617C31.8207 81.1615 30.8393 81.4854 30.4328 82.2921L19.3894 104.379C18.9861 105.186 19.3132 106.17 20.1231 106.577C20.3582 106.694 20.6059 106.752 20.8537 106.752C21.4539 106.752 22.0319 106.418 22.321 105.846L33.3611 83.7564C33.7677 82.9497 33.4406 81.9652 32.6306 81.5618" fill="#000119"/>
<path d="M51.0482 81.5617C50.2415 81.1615 49.2569 81.4854 48.8504 82.2921L37.8071 104.379C37.4037 105.186 37.7308 106.17 38.5407 106.577C38.7757 106.694 39.0235 106.752 39.2712 106.752C39.8715 106.752 40.4528 106.418 40.7386 105.846L51.7819 83.7564C52.1853 82.9497 51.8581 81.9652 51.0482 81.5618" fill="#000119"/>
<path d="M69.4658 81.5617C68.6559 81.1615 67.6745 81.4854 67.268 82.2921L56.2247 104.379C55.8181 105.186 56.1485 106.17 56.9584 106.577C57.1934 106.694 57.4411 106.752 57.6888 106.752C58.2891 106.752 58.8672 106.418 59.1562 105.846L70.1964 83.7564C70.6029 82.9497 70.2759 81.9652 69.4658 81.5618" fill="#000119"/>
<path d="M87.8821 81.5617C87.0722 81.1615 86.0908 81.4854 85.6843 82.2921L74.641 104.379C74.2376 105.186 74.5648 106.17 75.3747 106.577C75.6097 106.694 75.8575 106.752 76.1052 106.752C76.7055 106.752 77.2867 106.418 77.5725 105.846L88.6158 83.7564C89.0192 82.9497 88.692 81.9652 87.8821 81.5618" fill="#000119"/>
<path d="M105.569 81.5617C104.759 81.1615 103.778 81.4854 103.371 82.2921L92.3281 104.379C91.9247 105.186 92.2518 106.17 93.0618 106.577C93.2968 106.694 93.5445 106.752 93.7923 106.752C94.3926 106.752 94.9737 106.418 95.2596 105.846L106.303 83.7564C106.706 82.9497 106.379 81.9652 105.569 81.5618" fill="#000119"/>
<path d="M119.891 81.5617C119.081 81.1615 118.1 81.4854 117.693 82.2921L106.65 104.379C106.247 105.186 106.574 106.17 107.384 106.577C107.619 106.694 107.867 106.752 108.114 106.752C108.715 106.752 109.296 106.418 109.582 105.846L120.625 83.7564C121.028 82.9497 120.701 81.9652 119.891 81.5618" fill="#000119"/>
<path d="M42.0954 69.0992H98.4428C98.8176 69.0992 99.2082 69.0993 99.5734 69.1404V69.0992C108.778 69.0992 116.264 61.6131 116.264 52.4055C116.264 43.2044 108.778 35.7152 99.5734 35.7152C98.2712 35.7152 96.9182 35.8867 95.5461 36.2234C95.1015 36.3377 94.6314 36.2551 94.2439 36.001C93.8628 35.7469 93.6055 35.3435 93.5325 34.8893C91.6681 23.0107 81.5903 14.3876 69.5688 14.3876C56.1783 14.3876 45.2811 25.2849 45.2811 38.6785C45.2811 39.3391 45.3255 39.987 45.3794 40.6318C45.4208 41.1177 45.2429 41.6005 44.8903 41.9404C44.5409 42.2834 44.055 42.4453 43.569 42.3977C43.0863 42.3436 42.594 42.3121 42.0954 42.3121C34.7109 42.3121 28.7048 48.3213 28.7048 55.7057C28.7048 63.0902 34.7109 69.0993 42.0954 69.0993L42.0954 69.0992ZM42.0064 39.0343C42.0039 38.9169 42.0039 38.7993 42.0039 38.6786C42.0039 23.481 54.3716 11.11 69.5693 11.11C82.6422 11.11 93.6886 20.0889 96.455 32.698C97.5095 32.5232 98.5513 32.4376 99.574 32.4376C110.582 32.4376 119.542 41.3941 119.542 52.4057C119.542 63.4173 110.582 72.3739 99.5644 72.3739H84.6717H42.096C32.9043 72.3739 25.4246 64.8974 25.4246 55.7057C25.4246 46.5426 32.8567 39.0819 42.007 39.0343" fill="#000119"/>
<path d="M22.0247 21.3957C23.0474 21.3957 24.0891 21.4813 25.1404 21.653C27.91 9.04384 38.9565 0.0681763 52.0262 0.0681763C57.721 0.0681763 63.1807 1.78642 67.8241 5.04511C68.5674 5.56281 68.7452 6.58232 68.2275 7.32235C67.7066 8.06556 66.687 8.24343 65.9438 7.72572C61.8562 4.86088 57.0413 3.34276 52.0262 3.34276C40.0078 3.34276 29.9268 11.9658 28.0624 23.8445C27.9925 24.2986 27.7353 24.702 27.351 24.9561C26.9698 25.2102 26.4998 25.2896 26.052 25.1817C24.6831 24.8451 23.3301 24.6735 22.0247 24.6735C12.8204 24.6735 5.33426 32.1629 5.33426 41.3641C5.33426 49.9491 11.7626 57.0858 20.2873 57.9656C21.1893 58.0576 21.8436 58.8643 21.7515 59.7631C21.6626 60.608 20.9511 61.2338 20.1221 61.2338C20.065 61.2338 20.0079 61.2312 19.9507 61.2287C9.74905 60.1742 2.05332 51.6368 2.05332 41.3653C2.05332 30.3537 11.0132 21.3971 22.0247 21.3971" fill="#000119"/>
</svg>
