<svg width="121" height="111" viewBox="0 0 121 111" fill="none" xmlns="http://www.w3.org/2000/svg">
<path d="M2.94524 43.0974C-0.291831 53.8321 -0.41805 65.479 3.4118 76.8312C12.5368 103.879 42.4388 120.21 69.9225 110.721C94.1801 102.347 108.814 75.3642 100.045 50.67C92.4223 29.203 68.3565 16.2573 46.4527 24.3148C27.7771 31.1848 16.6128 52.3645 23.9708 71.4765C30.0859 87.3599 48.3558 96.8687 64.6734 90.1909C77.7635 84.8339 85.5452 69.4369 79.5145 55.919C74.921 45.6228 62.378 39.5015 51.6736 44.9512C47.9211 46.8616 44.9321 50.1803 43.4599 54.0664C41.9877 57.9526 42.0367 62.5447 44.5505 66.4669C46.0726 68.8418 48.5798 70.5754 51.3884 71.3544C54.1971 72.1335 57.67 71.6986 60.0163 69.1398C61.4431 67.5837 61.7223 65.8383 61.5365 63.889C61.4436 62.9144 61.1934 61.8331 60.181 60.9232C59.1687 60.0133 57.5066 59.7423 56.218 60.0876L57.4657 64.7221C57.7164 64.6551 57.2361 64.7188 56.9661 64.4749C56.6963 64.2322 56.7608 64.0769 56.7834 64.3129C56.8284 64.7847 56.2975 66.1073 56.4645 65.925C55.397 67.0892 54.1639 67.247 52.6049 66.8145C51.046 66.3821 49.4534 65.0825 48.6515 63.8314C47.0082 61.2674 46.9595 58.46 47.9923 55.7336C49.0252 53.0071 51.2055 50.4864 53.8301 49.1503C61.8428 45.071 71.5697 49.9273 75.1326 57.9136C79.9731 68.7636 73.5502 81.3377 62.8128 85.7317C49.146 91.3247 33.5986 83.2201 28.4017 69.7216C22.0595 53.2481 31.8073 34.8068 48.0738 28.823C67.348 21.7328 88.7764 33.2522 95.537 52.2911C103.375 74.3625 90.2214 98.7108 68.4069 106.242C43.5406 114.826 16.2939 99.9363 7.99726 75.3441C-1.33412 47.6845 15.1854 17.5058 42.557 8.44696C73.0086 -1.63124 106.123 16.5164 115.941 46.6687L120.527 45.1814C109.903 12.5547 74.1309 -7.08027 41.0698 3.8615C22.4214 10.0333 8.34035 25.2062 2.94524 43.0974V43.0974Z" fill="#000119"/>
</svg>
