<svg width="121" height="97" viewBox="0 0 121 97" fill="none" xmlns="http://www.w3.org/2000/svg">
<path d="M47.9982 84.4086C47.0734 84.4108 46.3268 85.1573 46.3246 86.0821V88.6583H43.7485C42.8259 88.6583 42.077 89.4072 42.0748 90.332C42.077 91.2568 42.8259 92.0055 43.7485 92.0055H46.3246L46.3224 94.5795C46.3224 95.5022 47.0711 96.2508 47.9959 96.2531C48.4595 96.2531 48.8806 96.0637 49.1815 95.7628C49.4846 95.4597 49.6718 95.0408 49.6695 94.5795L49.6718 92.0055L52.2457 92.0033C52.7093 92.0033 53.126 91.8182 53.429 91.5152C53.7321 91.2121 53.9193 90.7932 53.9193 90.3297C53.9171 89.4049 53.1683 88.6562 52.2457 88.6562L49.6718 88.6583V86.0821C49.6718 85.1595 48.923 84.4108 47.9982 84.4086" fill="#000119"/>
<path d="M41.5121 70.6832H99.063C99.4475 70.6832 99.8446 70.6832 100.22 70.724V70.6832C109.618 70.6832 117.267 63.0376 117.267 53.6364C117.267 44.2353 109.618 36.5894 100.22 36.5894C98.8834 36.5894 97.503 36.7629 96.1068 37.1063C95.653 37.2198 95.1677 37.1379 94.7769 36.8764C94.3861 36.6148 94.1214 36.2083 94.0489 35.7451C92.1454 23.6083 81.8523 14.8058 69.5737 14.8058C55.8927 14.8058 44.7645 25.9341 44.7645 39.6151C44.7645 40.2896 44.8119 40.9514 44.8654 41.6101C44.9065 42.1081 44.7237 42.5965 44.3674 42.9432C44.0081 43.2962 43.5133 43.4632 43.0217 43.4096C42.5237 43.3592 42.0226 43.3247 41.5121 43.3247C33.9703 43.3247 27.8342 49.4608 27.8342 57.0025C27.8342 64.5474 33.9703 70.6836 41.5121 70.6836V70.6832ZM41.4208 39.9777C41.4183 39.8579 41.4183 39.7352 41.4183 39.6153C41.4183 24.0875 54.0498 11.459 69.5745 11.459C82.9246 11.459 94.2072 20.627 97.0342 33.5043C98.1089 33.3278 99.1741 33.2427 100.22 33.2427C111.465 33.2427 120.614 42.3917 120.614 53.6366C120.614 64.8814 111.465 74.0304 100.211 74.0304H84.9983H41.5128C32.1243 74.0304 24.488 66.3942 24.488 57.0025C24.488 47.6486 32.0738 40.0281 41.4214 39.9777" fill="#000119"/>
<path d="M21.0114 21.9601C22.0577 21.9601 23.1229 22.0484 24.1976 22.2217C27.0246 9.35069 38.3104 0.176392 51.6573 0.176392C57.4689 0.176392 63.0471 1.93509 67.7934 5.26C68.5498 5.79262 68.7326 6.83576 68.2031 7.59214C67.6705 8.34852 66.6305 8.53125 65.8678 8.00178C61.692 5.07397 56.7787 3.5234 51.6573 3.5234C39.3788 3.5234 29.0858 12.3321 27.1822 24.4657C27.1096 24.929 26.845 25.3387 26.451 25.6003C26.0665 25.8587 25.5844 25.9405 25.1242 25.8304C23.7312 25.4837 22.3477 25.3073 21.0114 25.3073C11.6134 25.3073 3.9645 32.9562 3.9645 42.3574C3.9645 51.1251 10.5324 58.4146 19.2402 59.3128C20.1573 59.4104 20.8286 60.2331 20.734 61.1502C20.6425 62.0106 19.9146 62.6535 19.07 62.6535C19.01 62.6535 18.9535 62.6509 18.8966 62.6433C8.47429 61.5655 0.614258 52.845 0.614258 42.3566C0.614258 31.1086 9.76643 21.9597 21.0113 21.9597" fill="#000119"/>
<path d="M88.3384 84.4086C87.4135 84.4108 86.667 85.1573 86.6648 86.0821V88.6583H84.0887C83.1661 88.6583 82.4172 89.4072 82.415 90.332C82.4172 91.2568 83.1661 92.0055 84.0887 92.0055H86.6648L86.6626 94.5795C86.6626 95.5022 87.4113 96.2508 88.3361 96.2531C88.7997 96.2531 89.2208 96.0637 89.5217 95.7628C89.8248 95.4597 90.012 95.0408 90.0097 94.5795L90.0119 92.0055L92.5859 92.0033C93.0495 92.0033 93.4661 91.8182 93.7692 91.5152C94.0723 91.2121 94.2595 90.7932 94.2595 90.3297C94.2573 89.4049 93.5085 88.6562 92.5859 88.6562L90.0119 88.6583V86.0821C90.0119 85.1595 89.2632 84.4108 88.3384 84.4086" fill="#000119"/>
</svg>
