<svg width="121" height="107" viewBox="0 0 121 107" fill="none" xmlns="http://www.w3.org/2000/svg">
<path d="M41.005 70.5351H98.5578C98.9412 70.5351 99.3406 70.5351 99.7145 70.5764V70.5351C109.113 70.5351 116.763 62.8886 116.763 53.4898C116.763 44.0878 109.113 36.4414 99.7145 36.4414C98.3804 36.4414 96.9955 36.6155 95.6012 36.9579C95.1449 37.0719 94.6664 36.9896 94.2735 36.7298C93.8806 36.4699 93.6207 36.058 93.5447 35.5953C91.6402 23.4618 81.3446 14.6555 69.0684 14.6555C55.3884 14.6555 44.2562 25.7844 44.2562 39.4676C44.2562 40.1394 44.307 40.8049 44.361 41.464C44.399 41.9584 44.2152 42.4495 43.8603 42.7981C43.5054 43.1467 43.0047 43.3146 42.5167 43.2639C42.0192 43.2099 41.5153 43.1784 41.0051 43.1784C33.4632 43.1784 27.3252 49.3134 27.3252 56.8553C27.3252 64.3972 33.4632 70.5352 41.0051 70.5352L41.005 70.5351ZM40.9134 39.829C40.9134 39.7086 40.9108 39.5881 40.9108 39.4677C40.9108 23.9403 53.5419 11.3093 69.0693 11.3093C82.4197 11.3093 93.7008 20.4799 96.5306 33.355C97.6049 33.1808 98.6695 33.0919 99.7153 33.0919C110.962 33.0919 120.11 42.2405 120.11 53.4899C120.11 64.733 110.962 73.8847 99.7058 73.8847H84.4921H41.0059C31.6197 73.8847 23.9796 66.2446 23.9796 56.8553C23.9796 47.4977 31.5659 39.8829 40.914 39.829" fill="#000119"/>
<path d="M20.505 21.8123C21.5507 21.8123 22.6187 21.9011 23.6897 22.0754C26.5195 9.2003 37.8006 0.0264282 51.151 0.0264282C56.9627 0.0264282 62.5431 1.78516 67.2868 5.10929C68.0442 5.64166 68.228 6.68734 67.6988 7.44153C67.1633 8.19888 66.1239 8.38261 65.3634 7.85342C61.1868 4.92222 56.2719 3.37586 51.151 3.37586C38.8749 3.37586 28.5793 12.1821 26.6748 24.3157C26.5987 24.7815 26.3357 25.1903 25.9459 25.4502C25.5593 25.71 25.0777 25.7924 24.615 25.6816C23.2239 25.3331 21.8391 25.1619 20.505 25.1619C11.1062 25.1619 3.45655 32.8083 3.45655 42.2103C3.45655 50.9754 10.0224 58.2669 18.7304 59.1637C19.6526 59.2618 20.3212 60.0828 20.2261 61.0017C20.1374 61.8637 19.4086 62.5037 18.5625 62.5037C18.5054 62.5037 18.4451 62.5013 18.3881 62.4987C7.96888 61.4213 0.110138 52.7006 0.110138 42.2117C0.110138 30.9623 9.25859 21.8137 20.5049 21.8137" fill="#000119"/>
<path d="M49.2259 81.4869C48.4242 81.0908 47.4482 81.4139 47.0489 82.2126L36.0941 104.116C35.6917 104.921 36.0211 105.893 36.823 106.296C37.0544 106.41 37.3015 106.467 37.5487 106.467C38.1444 106.467 38.718 106.137 39.0032 105.57L49.9516 83.6671C50.3541 82.8654 50.031 81.8894 49.2259 81.4869" fill="#000119"/>
<path d="M67.4935 81.4869C66.6917 81.0908 65.7126 81.4139 65.3133 82.2126L54.3617 104.116C53.9593 104.921 54.2857 105.893 55.0874 106.296C55.3219 106.41 55.569 106.467 55.8098 106.467C56.4119 106.467 56.9823 106.137 57.2675 105.57L68.2191 83.6671C68.6216 82.8654 68.2952 81.8894 67.4935 81.4869Z" fill="#000119"/>
<path d="M85.7546 81.4869C84.9529 81.0908 83.9769 81.4139 83.5745 82.2126L72.6229 104.116C72.2236 104.921 72.5469 105.893 73.3517 106.296C73.5832 106.41 73.8303 106.467 74.0774 106.467C74.6732 106.467 75.2499 106.137 75.5319 105.57L86.4803 83.6671C86.8827 82.8654 86.5596 81.8894 85.7546 81.4869" fill="#000119"/>
</svg>
