<svg width="121" height="79" viewBox="0 0 121 79" fill="none" xmlns="http://www.w3.org/2000/svg">
<path d="M51.0107 75.5231H101.666C102.005 75.5231 102.354 75.523 102.685 75.559V75.5231C110.957 75.5231 117.689 68.7935 117.689 60.5187C117.689 52.2439 110.957 45.5141 102.685 45.5141C101.508 45.5141 100.293 45.6668 99.0645 45.9691C98.665 46.0689 98.2379 45.9968 97.8939 45.7667C97.5499 45.5365 97.3169 45.1787 97.2531 44.7709C95.5776 34.0883 86.5177 26.3404 75.7103 26.3404C63.6684 26.3404 53.8735 36.1354 53.8735 48.1773C53.8735 48.7709 53.9152 49.3535 53.9623 49.9332C53.9984 50.3715 53.8376 50.8015 53.524 51.1066C53.2077 51.4173 52.7722 51.5643 52.3395 51.5172C51.9012 51.4728 51.4601 51.4424 51.0107 51.4424C44.3726 51.4424 38.9716 56.8433 38.9716 63.4815C38.9716 70.1224 44.3726 75.5234 51.0107 75.5234V75.5231ZM50.9304 48.4964C50.9282 48.391 50.9282 48.2829 50.9282 48.1774C50.9282 34.51 62.0463 23.3945 75.711 23.3945C87.4616 23.3945 97.3924 31.4641 99.8807 42.7986C100.827 42.6433 101.764 42.5683 102.685 42.5683C112.583 42.5683 120.636 50.6212 120.636 60.5188C120.636 70.4164 112.583 78.4692 102.677 78.4692H89.2869H51.0114C42.7477 78.4692 36.0263 71.7479 36.0263 63.4815C36.0263 55.2483 42.7033 48.5408 50.931 48.4964" fill="#000119"/>
<path d="M28.1819 70.6681C18.9598 68.5007 10.9662 62.8187 5.97786 54.7651C-4.39988 38.0107 0.807907 15.9332 17.5615 5.55531C34.3158 -4.82241 56.3405 0.335789 66.7183 17.09C68.2075 19.4942 64.8369 20.5871 63.8051 18.9212C54.4161 3.76316 34.5013 -0.867867 19.3432 8.52123C4.18501 17.9102 -0.449182 37.7226 8.94043 52.8809C13.4443 60.1522 20.622 65.3589 28.9484 67.3158C31.0281 67.8046 30.6406 71.2459 28.1811 70.6678L28.1819 70.6681Z" fill="#000119"/>
</svg>
