<svg width="80" height="39" viewBox="0 0 80 39" fill="none" xmlns="http://www.w3.org/2000/svg">
<path d="M8.90433 17.2579C8.90433 12.3126 13.2546 8.28972 18.5997 8.28972C21.8692 8.28972 24.6992 9.58426 26.5008 12.1099C26.6826 12.3667 26.6067 12.711 26.3303 12.8792C26.0526 13.0496 25.6804 12.9783 25.4986 12.7226C23.9198 10.509 21.4633 9.39996 18.5997 9.39996C13.9157 9.39996 10.1046 12.9241 10.1046 17.2579C10.1046 19.9402 11.5613 22.4117 14.0004 23.8663C14.278 24.0333 14.359 24.3765 14.1784 24.6333C14.0651 24.7991 13.8721 24.8878 13.6754 24.8878C13.5634 24.8878 13.4501 24.8602 13.3492 24.7992C10.5665 23.1385 8.90433 20.3191 8.90433 17.2579Z" fill="#000119"/>
<path d="M18.472 5.5431C18.1396 5.5431 17.8719 5.29548 17.8719 4.98913V0.553967C17.8719 0.247619 18.1396 0 18.472 0C18.8032 0 19.0722 0.247619 19.0722 0.553967V4.98913C19.0722 5.29548 18.8032 5.5431 18.472 5.5431Z" fill="#000119"/>
<path d="M11.907 7.27174C11.8086 7.32822 11.7003 7.35469 11.5919 7.35469C11.3915 7.35469 11.1948 7.26137 11.0802 7.09207L8.55772 3.32148C8.38465 3.0612 8.47057 2.71913 8.75196 2.55675C9.03459 2.39666 9.40311 2.47611 9.57867 2.73754L12.1012 6.50701C12.2767 6.76844 12.1895 7.10935 11.907 7.27174" fill="#000119"/>
<path d="M6.94487 11.9415C6.85025 11.9415 6.75313 11.9195 6.66224 11.8758L2.434 9.78087C2.14141 9.63691 2.0306 9.30061 2.18748 9.02997C2.34311 8.75932 2.70666 8.65683 3.0005 8.80194L7.22875 10.8968C7.52134 11.042 7.63215 11.3783 7.47403 11.6477C7.36695 11.8355 7.15902 11.9415 6.94487 11.9415" fill="#000119"/>
<path d="M0.600374 16.4931H0.602365L5.39836 16.5058C5.7308 16.5058 5.99848 16.7557 5.99723 17.062C5.99624 17.3684 5.72831 17.616 5.39712 17.616H5.39611L0.600115 17.6034C0.267683 17.6025 0 17.3523 0 17.0448C0.000996053 16.7396 0.268928 16.4932 0.600115 16.4932" fill="#000119"/>
<path d="M2.49237 24.5211L6.70319 22.3917C6.99454 22.2454 7.35934 22.3433 7.51747 22.6139C7.67684 22.8823 7.56975 23.2198 7.27841 23.366L3.06759 25.4955C2.97675 25.5415 2.87835 25.5623 2.77999 25.5623C2.56957 25.5623 2.36289 25.4586 2.25333 25.2732C2.09521 25.0049 2.20232 24.6674 2.49237 24.5211Z" fill="#000119"/>
<path d="M25.9157 7.10869C25.8024 7.27683 25.6057 7.37012 25.4064 7.37012C25.2981 7.37012 25.1886 7.34251 25.089 7.28493C24.8076 7.12254 24.7229 6.78044 24.8985 6.51901L27.4434 2.75646C27.6189 2.49618 27.9887 2.41674 28.2701 2.58028C28.5502 2.74267 28.6361 3.08473 28.4593 3.34501L25.9157 7.10869V7.10869Z" fill="#000119"/>
<path d="M37.2412 36.4938H68.3503C68.5566 36.4938 68.7721 36.4938 68.9747 36.515V36.4938C74.0552 36.4938 78.1888 32.5356 78.1888 27.6706C78.1888 22.8039 74.0552 18.8474 68.9747 18.8474C68.2526 18.8474 67.5066 18.9374 66.7532 19.1138C66.5063 19.1738 66.2448 19.1315 66.0329 18.9974C65.8229 18.8616 65.6792 18.6481 65.6405 18.41C64.6108 12.1286 59.0459 7.57242 52.4071 7.57242C45.0148 7.57242 38.9985 13.3317 38.9985 20.4121C38.9985 20.7613 39.0263 21.1053 39.0538 21.4475C39.074 21.7033 38.9745 21.9573 38.783 22.1354C38.5896 22.3171 38.3225 22.4053 38.0554 22.3771C37.7883 22.3507 37.5157 22.3329 37.2412 22.3329C33.1628 22.3329 29.8452 25.5098 29.8452 29.4134C29.8452 33.317 33.1628 36.4937 37.2412 36.4937V36.4938ZM37.1915 20.6008C37.1915 20.5391 37.1901 20.4754 37.1901 20.412C37.1901 12.3755 44.0187 5.83837 52.4075 5.83837C59.6266 5.83837 65.7257 10.5852 67.2528 17.2493C67.8331 17.1594 68.4097 17.1135 68.9752 17.1135C75.0522 17.1135 80 21.8497 80 27.6706C80 33.4916 75.0522 38.2261 68.9696 38.2261H60.7466H37.2416C32.1667 38.2261 28.0368 34.273 28.0368 29.4134C28.0368 24.5696 32.1391 20.6255 37.1919 20.6008" fill="#000119"/>
<path d="M26.1582 11.2751C26.7255 11.2751 27.3002 11.321 27.8823 11.4109C29.4112 4.74674 35.5085 0 42.724 0C45.8647 0 48.882 0.910131 51.448 2.62997C51.8551 2.90338 51.9547 3.44496 51.6691 3.83656C51.3781 4.22815 50.8199 4.3234 50.4073 4.04999C48.1489 2.533 45.4926 1.73043 42.724 1.73043C36.0888 1.73043 30.5239 6.29019 29.496 12.5716C29.4535 12.8115 29.3118 13.0231 29.1 13.1589C28.89 13.2929 28.632 13.3353 28.3815 13.2789C27.6299 13.0989 26.8821 13.0072 26.1582 13.0072C21.0795 13.0072 16.9441 16.9673 16.9441 21.8322C16.9441 26.3708 20.4956 30.1439 25.2002 30.6078C25.6976 30.6589 26.0587 31.084 26.0089 31.5603C25.961 32.0066 25.5687 32.3364 25.11 32.3364C25.0768 32.3364 25.0456 32.335 25.0142 32.3336C19.3829 31.7762 15.1351 27.2623 15.1351 21.8329C15.1351 16.0119 20.0793 11.2757 26.1582 11.2757" fill="#000119"/>
</svg>
