<svg width="121" height="92" viewBox="0 0 121 92" fill="none" xmlns="http://www.w3.org/2000/svg">
<path d="M51.7433 88.0819L102.06 88.0796C102.394 88.0796 102.743 88.0795 103.068 88.1159V88.0827C111.286 88.0827 117.972 81.3974 117.972 73.1788C117.972 64.9602 111.286 58.2747 103.068 58.2747C101.908 58.2747 100.7 58.4237 99.4731 58.7272C99.0753 58.8243 98.6533 58.7544 98.3103 58.5236C97.9702 58.296 97.7395 57.9377 97.6757 57.5308C96.0119 46.9259 87.0101 39.2265 76.2776 39.2265C64.3186 39.2265 54.5881 48.9569 54.5881 60.9189C54.5881 61.5049 54.6306 62.0849 54.676 62.6617C54.7125 63.0959 54.5546 63.5239 54.2419 63.8275C53.9292 64.1311 53.4981 64.2769 53.0639 64.2374C52.6298 64.1917 52.1925 64.1614 51.7432 64.1614C45.1519 64.1614 39.7872 69.5291 39.7872 76.1204C39.7872 82.7147 45.1519 88.0824 51.7432 88.0824L51.7433 88.0819ZM51.6643 61.2347C51.6643 61.1315 51.6618 61.0251 51.6618 60.9189C51.6618 47.3448 62.7039 36.2995 76.2781 36.2995C87.9487 36.2995 97.8128 44.3208 100.284 55.5755C101.228 55.4208 102.157 55.3479 103.068 55.3479C112.902 55.3479 120.899 63.3449 120.899 73.1786C120.899 83.0094 112.902 91.0093 103.068 91.0093H103.054C102.835 91.0069 97.2092 91.0068 89.7618 91.0068L51.7444 91.0093C43.538 91.0093 36.8617 84.33 36.8617 76.1205C36.8617 67.9384 43.4924 61.2803 51.6655 61.2347" fill="#000119"/>
<path d="M22.6118 46.4577C22.6118 33.4209 33.2198 22.8159 46.2535 22.8159C54.2262 22.8159 61.1271 26.2286 65.5203 32.8866C65.9636 33.5637 65.7784 34.4714 65.1044 34.9146C64.4273 35.364 63.5196 35.1758 63.0763 34.5018C59.2266 28.6665 53.2365 25.7427 46.2535 25.7427C34.8319 25.7427 25.5386 35.033 25.5386 46.4577C25.5386 53.5286 29.0907 60.044 35.0384 63.8785C35.7154 64.3187 35.9128 65.2235 35.4725 65.9006C35.1963 66.3377 34.7257 66.5715 34.246 66.5715C33.9727 66.5715 33.6964 66.4987 33.4505 66.3379C26.6649 61.9599 22.6118 54.5277 22.6118 46.4578" fill="#000119"/>
<path d="M45.9423 15.5754C45.1317 15.5754 44.479 14.9226 44.479 14.115V2.42313C44.479 1.61554 45.1317 0.962769 45.9423 0.962769C46.7499 0.962769 47.4057 1.61554 47.4057 2.42313V14.115C47.4057 14.9226 46.7499 15.5754 45.9423 15.5754Z" fill="#000119"/>
<path d="M29.9336 20.1324C29.6939 20.2812 29.4296 20.351 29.1655 20.351C28.6767 20.351 28.197 20.105 27.9177 19.6587L21.7666 9.71877C21.3446 9.03262 21.5541 8.13087 22.2403 7.70279C22.9295 7.28078 23.8281 7.49021 24.2562 8.1794L30.4072 18.1164C30.8353 18.8056 30.6227 19.7043 29.9336 20.1324" fill="#000119"/>
<path d="M17.8337 32.4426C17.603 32.4426 17.3662 32.3848 17.1446 32.2694L6.83414 26.7469C6.12067 26.3674 5.85047 25.4808 6.23301 24.7674C6.61252 24.0539 7.49902 23.7837 8.21552 24.1662L18.526 29.6888C19.2394 30.0713 19.5096 30.9579 19.1241 31.6683C18.863 32.1632 18.3559 32.4426 17.8337 32.4426" fill="#000119"/>
<path d="M2.36293 44.4414H2.36779L14.0626 44.4751C14.8733 44.4751 15.526 45.1338 15.523 45.9414C15.5205 46.7489 14.8672 47.4017 14.0596 47.4017H14.0572L2.3623 47.3685C1.55168 47.3661 0.898941 46.7066 0.898941 45.896C0.90137 45.0914 1.55471 44.4417 2.3623 44.4417" fill="#000119"/>
<path d="M6.97649 65.6049L17.2444 59.9913C17.9549 59.6057 18.8444 59.8637 19.23 60.5771C19.6186 61.2845 19.3575 62.1742 18.6471 62.5598L8.37915 68.1733C8.15764 68.2948 7.91769 68.3495 7.67784 68.3495C7.16475 68.3495 6.66077 68.0763 6.3936 67.5875C6.00802 66.8801 6.26922 65.9904 6.97649 65.6049Z" fill="#000119"/>
<path d="M84.904 26.3469L74.636 31.9575C74.4114 32.0821 74.1715 32.1368 73.9347 32.1368C73.4186 32.1368 72.9146 31.8604 72.6505 31.3747C72.2619 30.6673 72.5229 29.7778 73.2334 29.3922L83.5013 23.7785C84.2117 23.3898 85.0982 23.6511 85.4869 24.3615C85.8724 25.0689 85.6144 25.9583 84.904 26.3469" fill="#000119"/>
<path d="M27.7868 72.2522C28.2179 71.5661 29.1166 71.3566 29.8058 71.7907C30.4889 72.2158 30.6953 73.1205 30.2672 73.8036L24.0646 83.7255C23.7883 84.1687 23.3086 84.4146 22.8229 84.4146C22.5557 84.4146 22.2885 84.3386 22.0487 84.1929C21.3625 83.7618 21.153 82.857 21.5841 82.1739L27.7868 72.2521V72.2522Z" fill="#000119"/>
<path d="M64.0933 19.7025C63.8171 20.1458 63.3374 20.3917 62.8516 20.3917C62.5875 20.3917 62.3203 20.3189 62.0774 20.1671C61.3913 19.739 61.1848 18.8372 61.6129 18.148L67.8186 8.22929C68.2467 7.54314 69.1484 7.33372 69.8345 7.76484C70.5176 8.19292 70.7271 9.09467 70.296 9.78081L64.0933 19.7025V19.7025Z" fill="#000119"/>
</svg>
