<svg width="121" height="110" viewBox="0 0 121 110" fill="none" xmlns="http://www.w3.org/2000/svg">
<path d="M33.9026 83.3033C33.0754 82.8945 32.073 83.2253 31.6577 84.0493L20.3784 106.608C19.9664 107.432 20.3006 108.438 21.1278 108.853C21.3678 108.973 21.6241 109.031 21.8739 109.031C22.4903 109.031 23.0806 108.691 23.3726 108.107L34.6519 85.5449C35.0639 84.7209 34.7299 83.7154 33.9026 83.3034" fill="#000119"/>
<path d="M52.7155 83.3033C51.8883 82.8945 50.8858 83.2253 50.4706 84.0493L39.1913 106.608C38.7793 107.432 39.1134 108.438 39.9406 108.853C40.1807 108.973 40.4337 109.031 40.6868 109.031C41.2999 109.031 41.8903 108.691 42.1855 108.107L53.4616 85.5449C53.8768 84.7209 53.5428 83.7154 52.7155 83.3034" fill="#000119"/>
<path d="M71.5267 83.3033C70.7027 82.8945 69.6971 83.2253 69.2819 84.0493L58.0025 106.608C57.5906 107.432 57.9246 108.438 58.7518 108.853C58.9919 108.973 59.2449 109.031 59.498 109.031C60.1111 109.031 60.7048 108.691 60.9967 108.107L72.2761 85.5449C72.6881 84.7209 72.3539 83.7154 71.5267 83.3034" fill="#000119"/>
<path d="M90.3378 83.3033C89.5106 82.8945 88.5082 83.2253 88.093 84.0493L76.8137 106.608C76.3984 107.432 76.7358 108.438 77.563 108.853C77.8031 108.973 78.0561 109.031 78.3092 109.031C78.9223 109.031 79.5127 108.691 79.8079 108.107L91.0839 85.5449C91.4992 84.7209 91.1652 83.7154 90.3378 83.3034" fill="#000119"/>
<path d="M109.148 83.3033C108.321 82.8945 107.318 83.2253 106.903 84.0493L95.6237 106.608C95.2117 107.432 95.5459 108.438 96.3731 108.853C96.6131 108.973 96.8661 109.031 97.1191 109.031C97.7323 109.031 98.3259 108.691 98.6179 108.107L109.897 85.5449C110.309 84.7209 109.975 83.7154 109.148 83.3034" fill="#000119"/>
<path d="M40.9268 70.5745H98.4783C98.8611 70.5745 99.2601 70.5746 99.6332 70.6166V70.5745C109.034 70.5745 116.68 62.9284 116.68 53.5241C116.68 44.1263 109.034 36.477 99.6332 36.477C98.3031 36.477 96.9211 36.6522 95.5197 36.9961C95.0656 37.1129 94.5856 37.0284 94.1898 36.7689C93.8006 36.5094 93.5377 36.0974 93.4631 35.6335C91.5589 23.501 81.2657 14.6937 68.9873 14.6937C55.3106 14.6937 44.1805 25.8238 44.1805 39.5037C44.1805 40.1784 44.2259 40.8402 44.2812 41.4987C44.3232 41.995 44.1416 42.4881 43.7817 42.8352C43.4248 43.1856 42.9285 43.351 42.4321 43.3024C41.9391 43.2471 41.4363 43.2149 40.927 43.2149C33.3847 43.2149 27.2503 49.3525 27.2503 56.8948C27.2503 64.437 33.3847 70.5746 40.927 70.5746L40.9268 70.5745ZM40.8361 39.867C40.8335 39.7471 40.8335 39.6271 40.8335 39.5038C40.8335 23.9814 53.4656 11.3459 68.9881 11.3459C82.3403 11.3459 93.6229 20.5168 96.4484 33.3954C97.5254 33.2168 98.5894 33.1294 99.634 33.1294C110.878 33.1294 120.029 42.2773 120.029 53.5242C120.029 64.7711 110.878 73.9192 99.6243 73.9192H84.4132H40.9276C31.5395 73.9192 23.8999 66.2829 23.8999 56.8948C23.8999 47.5359 31.4908 39.9157 40.8368 39.867" fill="#000119"/>
<path d="M20.4271 21.8515C21.4716 21.8515 22.5357 21.939 23.6094 22.1143C26.4382 9.23566 37.7208 0.0681763 51.0698 0.0681763C56.8863 0.0681763 62.4627 1.82315 67.2054 5.15147C67.9645 5.68024 68.1461 6.72154 67.6174 7.47738C67.0853 8.23648 66.044 8.41815 65.2849 7.88938C61.1099 4.9633 56.192 3.41274 51.0698 3.41274C38.7946 3.41274 28.4981 12.2201 26.5939 24.3526C26.5225 24.8165 26.2598 25.2285 25.8672 25.488C25.478 25.7475 24.9979 25.8286 24.5405 25.7185C23.1423 25.3746 21.7603 25.1994 20.4271 25.1994C11.026 25.1994 3.37999 32.8488 3.37999 42.2466C3.37999 51.0151 9.94576 58.3043 18.6526 59.2029C19.5739 59.2969 20.2422 60.1209 20.1481 61.0389C20.0573 61.9018 19.3306 62.541 18.4839 62.541C18.4255 62.541 18.3672 62.5384 18.3088 62.5358C7.88914 61.4588 0.0289307 52.7389 0.0289307 42.2479C0.0289307 31.001 9.18017 21.8529 20.4271 21.8529" fill="#000119"/>
</svg>
