<svg width="121" height="96" viewBox="0 0 121 96" fill="none" xmlns="http://www.w3.org/2000/svg">
<path d="M41.1958 70.9432H98.7454C99.1292 70.9432 99.5281 70.9431 99.9028 70.9857V70.9432C109.301 70.9432 116.952 63.2987 116.952 53.8969C116.952 44.4951 109.301 36.8476 99.9028 36.8476C98.5688 36.8476 97.1861 37.0243 95.7881 37.3715C95.3343 37.4812 94.8532 37.399 94.4603 37.14C94.0705 36.8781 93.8055 36.4669 93.7324 36.004C91.8289 23.8703 81.5348 15.0655 69.258 15.0655C55.5771 15.0655 44.4454 26.1972 44.4454 39.8781C44.4454 40.5511 44.4942 41.215 44.5522 41.8729C44.5887 42.3693 44.4059 42.8566 44.0496 43.2068C43.6933 43.554 43.1969 43.7246 42.7065 43.6729C42.207 43.621 41.7076 43.5875 41.1959 43.5875C33.652 43.5875 27.5181 49.7244 27.5181 57.2653C27.5181 64.8062 33.652 70.9432 41.1959 70.9432H41.1958ZM41.1045 40.2405C41.1021 40.1186 41.1021 39.9968 41.1021 39.8781C41.1021 24.3485 53.7322 11.7184 69.2586 11.7184C82.6075 11.7184 93.8915 20.8887 96.7178 33.7625C97.7929 33.5919 98.8589 33.5006 99.9035 33.5006C111.148 33.5006 120.3 42.6525 120.3 53.8969C120.3 65.1412 111.148 74.2902 99.8943 74.2902H84.6816H41.1965C31.8069 74.2902 24.1716 66.6549 24.1716 57.2653C24.1716 47.9093 31.7582 40.2892 41.1051 40.2405" fill="#000119"/>
<path d="M20.6961 22.2227C21.7438 22.2227 22.8097 22.3108 23.8787 22.4846C26.7111 9.6108 37.9921 0.437561 51.341 0.437561C57.152 0.437561 62.7315 2.1979 67.4766 5.52065C68.2349 6.05058 68.4146 7.09832 67.8877 7.85363C67.3547 8.60894 66.3131 8.7946 65.5548 8.26466C61.3762 5.3348 56.4637 3.7846 51.341 3.7846C39.0641 3.7846 28.7669 12.5926 26.8634 24.7262C26.7903 25.1922 26.5285 25.6003 26.1356 25.8622C25.7488 26.1181 25.2675 26.2033 24.8077 26.0936C23.4128 25.7434 22.0301 25.5699 20.6961 25.5699C11.2974 25.5699 3.64683 33.2173 3.64683 42.616C3.64683 51.3873 10.2162 58.6755 18.9236 59.574C19.8434 59.6714 20.5103 60.4937 20.4159 61.4104C20.3246 62.2723 19.5997 62.9149 18.753 62.9149C18.6953 62.9149 18.6373 62.9125 18.5796 62.9052C8.16057 61.8271 0.299866 53.1075 0.299866 42.6154C0.299866 31.3711 9.45189 22.2221 20.6962 22.2221" fill="#000119"/>
<path d="M39.547 83.6375C38.6533 83.6396 37.9318 84.361 37.9297 85.2547V87.7443H35.4402C34.5486 87.7443 33.825 88.4679 33.8228 89.3617C33.825 90.2554 34.5486 90.9789 35.4402 90.9789H37.9297L37.9275 93.4664C37.9275 94.358 38.6511 95.0814 39.5448 95.0836C39.9928 95.0836 40.3998 94.9006 40.6905 94.6098C40.9834 94.3169 41.1643 93.9122 41.1621 93.4664L41.1643 90.9789L43.6517 90.9768C44.0997 90.9768 44.5023 90.7979 44.7952 90.5051C45.0881 90.2122 45.269 89.8074 45.269 89.3594C45.2669 88.4657 44.5433 87.7422 43.6517 87.7422L41.1643 87.7443V85.2547C41.1643 84.3631 40.4407 83.6396 39.547 83.6375" fill="#000119"/>
<path d="M68.7848 83.6375C67.891 83.6396 67.1696 84.361 67.1675 85.2547V87.7443H64.678C63.7864 87.7443 63.0627 88.4679 63.0606 89.3617C63.0627 90.2554 63.7864 90.9789 64.678 90.9789H67.1675L67.1653 93.4664C67.1653 94.358 67.8889 95.0814 68.7826 95.0836C69.2305 95.0836 69.6376 94.9006 69.9283 94.6098C70.2212 94.3169 70.4021 93.9122 70.3999 93.4664L70.4021 90.9789L72.8895 90.9768C73.3374 90.9768 73.7401 90.7979 74.033 90.5051C74.3259 90.2122 74.5068 89.8074 74.5068 89.3594C74.5046 88.4657 73.7811 87.7422 72.8895 87.7422L70.4021 87.7443V85.2547C70.4021 84.3631 69.6785 83.6396 68.7848 83.6375" fill="#000119"/>
<path d="M98.0225 83.6375C97.1288 83.6396 96.4074 84.361 96.4052 85.2547V87.7443H93.9157C93.0241 87.7443 92.3005 88.4679 92.2983 89.3617C92.3005 90.2554 93.0241 90.9789 93.9157 90.9789H96.4052L96.4031 93.4664C96.4031 94.358 97.1266 95.0814 98.0204 95.0836C98.4683 95.0836 98.8753 94.9006 99.166 94.6098C99.4589 94.3169 99.6398 93.9122 99.6377 93.4664L99.6398 90.9789L102.127 90.9768C102.575 90.9768 102.978 90.7979 103.271 90.5051C103.564 90.2122 103.745 89.8074 103.745 89.3594C103.742 88.4657 103.019 87.7422 102.127 87.7422L99.6398 87.7443V85.2547C99.6398 84.3631 98.9162 83.6396 98.0225 83.6375" fill="#000119"/>
</svg>
