<svg width="121" height="112" viewBox="0 0 121 112" fill="none" xmlns="http://www.w3.org/2000/svg">
<path d="M50.9585 87.4629L101.277 87.4604C101.611 87.4604 101.955 87.4604 102.284 87.4983V87.4633C110.499 87.4633 117.189 80.7761 117.189 72.5577C117.189 64.3392 110.499 57.6552 102.284 57.6552C101.122 57.6552 99.9126 57.8034 98.6844 58.1066C98.2866 58.2014 97.8635 58.132 97.5225 57.9047C97.1847 57.6774 96.951 57.3174 96.8879 56.9132C95.224 46.3078 86.2256 38.6102 75.4939 38.6102C63.5309 38.6102 53.8 48.3381 53.8 60.298C53.8 60.8884 53.8443 61.4692 53.8915 62.0439C53.9263 62.4796 53.7652 62.9058 53.4558 63.2089C53.1432 63.5152 52.7075 63.6604 52.2781 63.6162C51.8424 63.575 51.4067 63.5434 50.9583 63.5434C44.3627 63.5434 38.9984 68.9078 38.9984 75.5002C38.9984 82.0958 44.3627 87.4633 50.9583 87.4633L50.9585 87.4629ZM50.8793 60.6166C50.8793 60.5093 50.8742 60.405 50.8742 60.2978C50.8742 46.7277 61.9185 35.6865 75.4949 35.6865C87.1644 35.6865 97.0278 43.703 99.5 54.9557C100.441 54.8041 101.375 54.725 102.285 54.725C112.113 54.725 120.114 62.7256 120.114 72.5575C120.114 82.3894 112.113 90.3868 102.285 90.3868H102.27H88.9773H50.9601C42.7511 90.3868 36.0734 83.7091 36.0734 75.5001C36.0734 67.3195 42.7069 60.6607 50.8812 60.6165" fill="#000119"/>
<path d="M21.8241 45.8414C21.8241 32.8049 32.4295 22.1962 45.4692 22.1962C53.4382 22.1962 60.3401 25.6125 64.7319 32.2713C65.1739 32.9438 64.994 33.8531 64.3183 34.2982C63.6426 34.7434 62.7333 34.5571 62.2882 33.8846C58.4394 28.0467 52.45 25.1231 45.4692 25.1231C34.0429 25.1231 24.754 34.4182 24.754 45.8414C24.754 52.9106 28.306 59.424 34.2512 63.2633C34.93 63.6959 35.129 64.602 34.6869 65.284C34.4059 65.7165 33.9355 65.9534 33.4587 65.9534C33.1872 65.9534 32.9125 65.8777 32.6694 65.7198C25.878 61.3406 21.8241 53.9115 21.8241 45.8414" fill="#000119"/>
<path d="M45.1588 14.9588C44.3473 14.9588 43.6938 14.3052 43.6938 13.4937V1.80537C43.6938 0.997093 44.3473 0.343567 45.1588 0.343567C45.967 0.343567 46.6206 0.997093 46.6206 1.80537V13.4937C46.6206 14.3052 45.967 14.9588 45.1588 14.9588Z" fill="#000119"/>
<path d="M29.1503 19.5128C28.9103 19.661 28.6451 19.7308 28.3799 19.7308C27.8905 19.7308 27.4106 19.4877 27.1327 19.0424L20.9823 9.10012C20.5561 8.41182 20.7676 7.51187 21.4559 7.08563C22.1442 6.66256 23.044 6.87405 23.4703 7.56247L29.6239 17.4986C30.0469 18.1869 29.8355 19.0867 29.1503 19.5129" fill="#000119"/>
<path d="M17.0483 31.8245C16.8179 31.8245 16.5842 31.7676 16.36 31.6476L6.04824 26.1287C5.33469 25.7466 5.0663 24.8625 5.44518 24.1458C5.82722 23.4385 6.71759 23.1671 7.42482 23.5492L17.7429 29.0712C18.4502 29.4501 18.7185 30.3373 18.3428 31.0509C18.0744 31.5434 17.5724 31.8245 17.0483 31.8245Z" fill="#000119"/>
<path d="M1.58223 43.8217L13.28 43.8565C14.0852 43.8565 14.7387 44.5163 14.7387 45.3246C14.7362 46.1266 14.082 46.7801 13.2738 46.7801L1.57591 46.7485C0.764479 46.746 0.110914 46.0886 0.114071 45.2804C0.114071 44.4721 0.786586 43.8311 1.58223 43.8217" fill="#000119"/>
<path d="M6.19187 64.9857L16.4594 59.3752C17.1667 58.99 18.0571 59.2488 18.4454 59.9561C18.8306 60.6664 18.5684 61.5568 17.8613 61.942L7.59373 67.5526C7.37272 67.6756 7.13274 67.7325 6.89594 67.7325C6.37814 67.7325 5.87298 67.4577 5.60777 66.9715C5.21942 66.2611 5.48147 65.3739 6.19187 64.9855" fill="#000119"/>
<path d="M84.1194 25.7257L73.8487 31.3395C73.6244 31.4595 73.3877 31.5196 73.1478 31.5196C72.63 31.5196 72.1279 31.2448 71.8627 30.7586C71.4775 30.0482 71.7364 29.161 72.4468 28.7727L82.7144 23.1621C83.4216 22.7706 84.312 23.0329 84.7035 23.7432C85.0887 24.4535 84.8268 25.3407 84.1194 25.7259" fill="#000119"/>
<path d="M27.0011 71.6331C27.4336 70.948 28.3335 70.7395 29.0186 71.1689C29.7006 71.5952 29.9121 72.4981 29.4827 73.1833L23.2786 83.1067C23.0008 83.5488 22.524 83.7951 22.0378 83.7951C21.7726 83.7951 21.5042 83.7223 21.2643 83.5708C20.5791 83.1445 20.3676 82.2384 20.797 81.5532L27.0011 71.633V71.6331Z" fill="#000119"/>
<path d="M63.307 19.0844C63.0323 19.5296 62.5556 19.7726 62.0662 19.7726C61.8041 19.7726 61.5326 19.6998 61.2895 19.5483C60.6107 19.122 60.4023 18.2191 60.8285 17.5339L67.0326 7.61062C67.4557 6.92548 68.3619 6.71703 69.0438 7.14642C69.7321 7.57266 69.9373 8.47877 69.5111 9.16075L63.307 19.0842V19.0844Z" fill="#000119"/>
<path d="M38.7442 99.4619C37.8177 99.4641 37.0698 100.212 37.0676 101.138V103.719H34.4867C33.5625 103.719 32.8123 104.469 32.8101 105.396C32.8123 106.323 33.5625 107.073 34.4867 107.073H37.0676L37.0654 109.651C37.0654 110.576 37.8155 111.326 38.742 111.328C39.2064 111.328 39.6283 111.138 39.9297 110.837C40.2334 110.533 40.4209 110.113 40.4187 109.651L40.4209 107.073L42.9995 107.07C43.4638 107.07 43.8814 106.885 44.185 106.581C44.4886 106.278 44.6761 105.858 44.6761 105.394C44.6739 104.467 43.9237 103.717 42.9995 103.717L40.4209 103.719V101.138C40.4209 100.214 39.6707 99.4641 38.7442 99.4619" fill="#000119"/>
<path d="M69.0544 99.4619C68.1279 99.4641 67.38 100.212 67.3778 101.138V103.719H64.7969C63.8726 103.719 63.1225 104.469 63.1203 105.396C63.1225 106.323 63.8726 107.073 64.7969 107.073H67.3778L67.3755 109.651C67.3755 110.576 68.1257 111.326 69.0522 111.328C69.5165 111.328 69.9385 111.138 70.2399 110.837C70.5435 110.533 70.7311 110.113 70.7288 109.651L70.7311 107.073L73.3096 107.07C73.774 107.07 74.1915 106.885 74.4952 106.581C74.7988 106.278 74.9863 105.858 74.9863 105.394C74.9841 104.467 74.2339 103.717 73.3096 103.717L70.7311 103.719V101.138C70.7311 100.214 69.9809 99.4641 69.0544 99.4619" fill="#000119"/>
<path d="M99.3646 99.4619C98.4381 99.4641 97.6902 100.212 97.688 101.138V103.719H95.1071C94.1828 103.719 93.4327 104.469 93.4305 105.396C93.4327 106.323 94.1828 107.073 95.1071 107.073H97.688L97.6857 109.651C97.6857 110.576 98.4359 111.326 99.3624 111.328C99.8267 111.328 100.249 111.138 100.55 110.837C100.854 110.533 101.041 110.113 101.039 109.651L101.041 107.073L103.62 107.07C104.084 107.07 104.502 106.885 104.805 106.581C105.109 106.278 105.297 105.858 105.297 105.394C105.294 104.467 104.544 103.717 103.62 103.717L101.041 103.719V101.138C101.041 100.214 100.291 99.4641 99.3646 99.4619" fill="#000119"/>
</svg>
