<svg width="121" height="111" viewBox="0 0 121 111" fill="none" xmlns="http://www.w3.org/2000/svg">
<path d="M59.7452 97.8031C59.0241 97.4376 58.1449 97.7338 57.7827 98.4551L52.5505 108.854C52.1915 109.578 52.478 110.457 53.1991 110.816C53.4165 110.922 53.6404 110.974 53.861 110.974C54.3911 110.974 54.9081 110.681 55.1682 110.168L60.3939 99.7658C60.7562 99.0479 60.4697 98.1653 59.7452 97.8031" fill="#000119"/>
<path d="M78.3831 97.8031C77.6554 97.4376 76.7828 97.7338 76.414 98.4551L71.1884 108.854C70.8229 109.578 71.116 110.457 71.847 110.816C72.0545 110.922 72.275 110.974 72.4989 110.974C73.0291 110.974 73.546 110.681 73.7996 110.168L79.0318 99.7658C79.394 99.0479 79.1011 98.1653 78.3831 97.8031" fill="#000119"/>
<path d="M97.0208 97.8031C96.2865 97.4376 95.4139 97.7338 95.0517 98.4551L89.826 108.854C89.4605 109.578 89.7535 110.457 90.4746 110.816C90.6788 110.922 90.9126 110.974 91.1299 110.974C91.6666 110.974 92.1836 110.681 92.4371 110.168L97.6694 99.7658C98.0316 99.0479 97.7387 98.1653 97.0208 97.8031" fill="#000119"/>
<path d="M51.759 87.6531L102.08 87.6505C102.412 87.6505 102.758 87.6504 103.087 87.6833V87.6539C111.303 87.6539 117.99 80.9662 117.99 72.7474C117.99 64.5318 111.303 57.844 103.087 57.844C101.922 57.844 100.716 57.999 99.4915 58.2986C99.0964 58.3939 98.6716 58.3249 98.3325 58.0944C97.9834 57.8739 97.7595 57.5083 97.6904 57.1065C96.0275 46.4971 87.0316 38.8019 76.2937 38.8019C64.3376 38.8019 54.604 48.532 54.604 60.4915C54.604 61.0776 54.6467 61.6572 54.7028 62.2302C54.7326 62.6648 54.5711 63.0961 54.2583 63.399C53.9521 63.7053 53.5141 63.8501 53.0795 63.8106C52.6514 63.7611 52.2102 63.7317 51.759 63.7317C45.1701 63.7317 39.8028 69.1022 39.8028 75.6911C39.8028 82.2866 45.1701 87.6539 51.759 87.6539V87.6531ZM51.6831 60.8076V60.4915C51.6831 46.9185 62.7239 35.8745 76.2936 35.8745C87.9699 35.8745 97.8352 43.8891 100.301 55.1472C101.247 54.9924 102.175 54.9168 103.087 54.9168C112.916 54.9168 120.921 62.915 120.921 72.7474C120.921 82.583 112.916 90.5812 103.087 90.5812H103.074H89.7777H51.7589C43.5565 90.5812 36.8787 83.9001 36.8787 75.6911C36.8787 67.5118 43.5137 60.8504 51.6831 60.8076" fill="#000119"/>
<path d="M22.6286 46.033C22.6286 32.9968 33.238 22.3874 46.2742 22.3874C54.2461 22.3874 61.1445 25.802 65.5371 32.46C65.9817 33.135 65.7971 34.044 65.1222 34.4852C64.4472 34.933 63.545 34.7519 63.0939 34.0736C59.2446 28.2388 53.2583 25.3147 46.2742 25.3147C34.8515 25.3147 25.5592 34.607 25.5592 46.033C25.5592 53.0994 29.1088 59.6125 35.0523 63.4519C35.7339 63.8899 35.9348 64.7922 35.4903 65.4738C35.2104 65.9084 34.7494 66.1455 34.2654 66.1455C33.9921 66.1455 33.7122 66.0696 33.4751 65.9116C26.6821 61.5321 22.6286 54.1035 22.6286 46.0329" fill="#000119"/>
<path d="M45.9611 15.1501C45.1576 15.1501 44.4957 14.4915 44.4957 13.6848V1.99529C44.4957 1.18855 45.1576 0.536682 45.9611 0.536682C46.7711 0.536682 47.4231 1.18855 47.4231 1.99529V13.6848C47.4231 14.4915 46.7711 15.1501 45.9611 15.1501Z" fill="#000119"/>
<path d="M29.9537 19.7017C29.7132 19.8532 29.4499 19.9225 29.1898 19.9225C28.6992 19.9225 28.2151 19.6789 27.9385 19.2311L21.7876 9.28999C21.3628 8.60508 21.5734 7.7029 22.2617 7.27813C22.9499 6.85006 23.8489 7.06428 24.277 7.74906L30.4312 17.69C30.8494 18.3782 30.6419 19.2804 29.9537 19.7019" fill="#000119"/>
<path d="M17.8533 32.0145C17.6228 32.0145 17.3824 31.9585 17.1651 31.8403L6.85199 26.3214C6.13746 25.9362 5.8708 25.0504 6.25606 24.3392C6.63473 23.6279 7.5205 23.3613 8.23504 23.7399L18.5415 29.262C19.2593 29.6439 19.5293 30.5297 19.1507 31.2442C18.8806 31.7349 18.3703 32.0147 17.8533 32.0147" fill="#000119"/>
<path d="M2.38312 44.0135H2.38834L14.0811 44.0464C14.8911 44.049 15.5431 44.705 15.5431 45.515C15.5378 46.3217 14.8845 46.9738 14.0811 46.9738H14.0758L2.38312 46.9377C1.57309 46.9351 0.921051 46.2757 0.921051 45.469C0.92632 44.6623 1.57967 44.0136 2.38312 44.0136" fill="#000119"/>
<path d="M6.99732 65.1774L17.261 59.5664C17.9689 59.1779 18.8646 59.4381 19.2531 60.1459C19.6384 60.8571 19.3748 61.7462 18.6736 62.1348L8.40006 67.7425C8.17931 67.8676 7.93573 67.9237 7.69865 67.9237C7.18826 67.9237 6.67461 67.6504 6.40789 67.1631C6.02922 66.4518 6.28594 65.5627 6.99732 65.1774" fill="#000119"/>
<path d="M84.9248 25.9209L74.6546 31.5318C74.4273 31.6538 74.1903 31.7097 73.9533 31.7097C73.4363 31.7097 72.9357 31.433 72.669 30.949C72.2838 30.241 72.5405 29.3487 73.2551 28.9601L83.5155 23.3526C84.2235 22.964 85.1191 23.2239 85.5044 23.932C85.8929 24.64 85.6361 25.529 84.9248 25.9209" fill="#000119"/>
<path d="M27.8059 71.8256C28.2373 71.1374 29.1329 70.93 29.8211 71.3581C30.5027 71.7861 30.7167 72.6883 30.2853 73.3797L24.0817 83.2977C23.8084 83.7389 23.3244 83.9859 22.8403 83.9859C22.5835 83.9859 22.3102 83.9101 22.0731 83.7621C21.3849 83.334 21.1709 82.4284 21.5989 81.7468L27.8059 71.8256V71.8256Z" fill="#000119"/>
<path d="M64.107 19.2756C63.837 19.7169 63.3563 19.9606 62.8689 19.9606C62.6022 19.9606 62.3388 19.8912 62.0984 19.7432C61.4135 19.3085 61.2061 18.4064 61.6275 17.7215L67.8411 7.80354C68.2659 7.11864 69.1615 6.90785 69.8563 7.3392C70.5379 7.76397 70.7454 8.66954 70.3206 9.35444L64.107 19.2756V19.2756Z" fill="#000119"/>
</svg>
