<svg width="121" height="118" viewBox="0 0 121 118" fill="none" xmlns="http://www.w3.org/2000/svg">
<path d="M51.5715 87.4238H101.882C102.221 87.4238 102.569 87.4238 102.894 87.4611V87.4238C111.118 87.4238 117.799 80.7364 117.799 72.5194C117.799 64.3024 111.118 57.6117 102.894 57.6117C101.737 57.6117 100.525 57.7673 99.3001 58.0685C98.9007 58.1632 98.4777 58.093 98.1393 57.8655C97.8009 57.6422 97.5707 57.28 97.4996 56.8739C95.8379 46.2709 86.8391 38.5717 76.1076 38.5717C64.1441 38.5717 54.4143 48.3014 54.4143 60.2615C54.4143 60.8503 54.4585 61.4257 54.4991 62.001C54.5432 62.4376 54.3807 62.8674 54.0625 63.172C53.7579 63.4766 53.3247 63.6187 52.8882 63.5815C52.455 63.5308 52.0218 63.5071 51.5717 63.5071C44.9757 63.5071 39.6082 68.8712 39.6082 75.4638C39.6082 82.0598 44.9757 87.4238 51.5717 87.4238H51.5715ZM51.4905 60.5796V60.2615C51.4905 46.6871 62.5334 35.6443 76.1078 35.6443C87.7768 35.6443 97.6385 43.6649 100.112 54.9177C101.057 54.7652 101.987 54.6908 102.894 54.6908C112.726 54.6908 120.726 62.6879 120.726 72.5192C120.726 82.3472 112.726 90.3477 102.894 90.3477H102.883L51.5705 90.3479C43.3603 90.3479 36.6865 83.6707 36.6865 75.4638C36.6865 67.284 43.3197 60.6237 51.4893 60.5797" fill="#000119"/>
<path d="M22.4417 45.8008C22.4417 32.7645 33.0446 22.1582 46.0775 22.1582C54.0508 22.1582 60.9514 25.5696 65.351 32.2332C65.791 32.9033 65.6082 33.8137 64.9314 34.257C64.2545 34.7071 63.3543 34.5211 62.9042 33.8442C59.0495 28.0097 53.0626 25.0856 46.0775 25.0856C34.6623 25.0856 25.3657 34.3788 25.3657 45.8008C25.3657 52.8705 28.9192 59.3853 34.8654 63.2197C35.5388 63.6597 35.7419 64.5633 35.3019 65.2435C35.0278 65.6801 34.5506 65.9171 34.07 65.9171C33.7993 65.9171 33.5184 65.8391 33.2748 65.6834C26.496 61.3008 22.4417 53.8689 22.4417 45.8008" fill="#000119"/>
<path d="M45.7712 14.921C44.9589 14.921 44.3058 14.2644 44.3058 13.4556V1.76625C44.3058 0.95741 44.9589 0.304138 45.7712 0.304138C46.5766 0.304138 47.2298 0.95741 47.2298 1.76625V13.4556C47.2298 14.2644 46.5766 14.921 45.7712 14.921Z" fill="#000119"/>
<path d="M29.7588 19.4734C29.5219 19.6187 29.2579 19.6933 28.9872 19.6933C28.4998 19.6933 28.0227 19.4495 27.7418 18.9994L21.5926 9.06322C21.1729 8.37621 21.3827 7.47254 22.0697 7.04951C22.7635 6.62309 23.6569 6.83648 24.0867 7.51997L30.2293 17.4596C30.6658 18.1467 30.4526 19.0502 29.7588 19.4732" fill="#000119"/>
<path d="M17.6559 31.7845C17.4258 31.7845 17.1855 31.7269 16.9689 31.6121L6.66037 26.0889C5.94291 25.7098 5.67216 24.8231 6.06135 24.109C6.437 23.3983 7.32372 23.1311 8.0378 23.5102L18.3497 29.0332C19.0638 29.4123 19.3379 30.2989 18.9521 31.0096C18.6881 31.5037 18.1805 31.7846 17.6559 31.7846" fill="#000119"/>
<path d="M2.18869 43.7834H2.19959L13.8888 43.8173C14.6943 43.8173 15.361 44.4773 15.3543 45.2827C15.3461 46.0916 14.6943 46.7447 13.8888 46.7447H13.8807L2.18125 46.7076C1.37917 46.7076 0.726074 46.0477 0.726074 45.2422C0.726074 44.4334 1.38595 43.7836 2.18802 43.7836" fill="#000119"/>
<path d="M6.79907 64.9467L17.0738 59.3355C17.7811 58.9497 18.6712 59.2103 19.057 59.9177C19.4394 60.6284 19.182 61.5183 18.4748 61.9041L8.20021 67.5188C7.98361 67.6374 7.74331 67.6948 7.50641 67.6948C6.98862 67.6948 6.49111 67.4206 6.21698 66.9333C5.83117 66.226 6.09866 65.3325 6.79907 64.9467" fill="#000119"/>
<path d="M84.73 25.6871L74.4621 31.3016C74.2352 31.4234 73.9984 31.4808 73.7615 31.4808C73.2471 31.4808 72.7463 31.2066 72.4789 30.7159C72.0965 30.0086 72.3538 29.1186 73.061 28.7328L83.3289 23.1249C84.0362 22.7289 84.9263 22.9931 85.3121 23.7071C85.698 24.4144 85.4439 25.3011 84.73 25.6869" fill="#000119"/>
<path d="M27.6173 71.5978C28.0437 70.9108 28.9473 70.701 29.6343 71.1308C30.3145 71.5606 30.521 72.4608 30.0878 73.1478L23.8878 83.0705C23.617 83.5138 23.133 83.7576 22.6491 83.7576C22.3851 83.7576 22.1178 83.6831 21.8809 83.5341C21.1939 83.1043 20.9841 82.2007 21.4105 81.5171L27.6173 71.5978V71.5978Z" fill="#000119"/>
<path d="M63.9187 19.0473C63.6412 19.4873 63.164 19.7343 62.6801 19.7343C62.4161 19.7343 62.1487 19.6634 61.9017 19.511C61.2147 19.0812 61.015 18.1775 61.4415 17.4938L67.6482 7.57118C68.0746 6.88755 68.9782 6.67769 69.6618 7.10749C70.342 7.53391 70.5519 8.43758 70.1255 9.12121L63.9187 19.0473V19.0473Z" fill="#000119"/>
<path d="M89.3907 103.61C88.6496 103.234 87.746 103.539 87.3669 104.28L81.996 114.967C81.6271 115.712 81.9283 116.616 82.6627 116.984C82.8793 117.093 83.1128 117.147 83.343 117.147C83.8946 117.147 84.4192 116.846 84.6865 116.318L90.054 105.627C90.4364 104.889 90.1353 103.982 89.3907 103.61" fill="#000119"/>
<path d="M62.3165 103.61C61.5753 103.234 60.6717 103.539 60.2927 104.28L54.9218 114.967C54.5529 115.712 54.8541 116.616 55.5885 116.984C55.8051 117.093 56.0386 117.147 56.2687 117.147C56.8204 117.147 57.3449 116.846 57.6123 116.318L62.9798 105.627C63.3622 104.889 63.061 103.982 62.3165 103.61" fill="#000119"/>
</svg>
