<svg width="121" height="121" viewBox="0 0 121 121" fill="none" xmlns="http://www.w3.org/2000/svg">
<path d="M60.6025 88.6793C45.3885 88.6793 33.0138 76.3011 33.0138 61.0871C33.0138 45.8766 45.3885 33.4985 60.6025 33.4985C75.8165 33.4985 88.1911 45.8766 88.1911 61.0871C88.1911 76.3011 75.8165 88.6793 60.6025 88.6793ZM60.6025 29.6004C43.2398 29.6004 29.1158 43.7245 29.1158 61.0871C29.1158 78.4498 43.2398 92.5774 60.6025 92.5774C77.9616 92.5774 92.0891 78.4498 92.0891 61.0871C92.0891 43.7245 77.9616 29.6004 60.6025 29.6004Z" fill="#000119"/>
<path d="M60.6025 20.3701C61.6785 20.3701 62.5498 19.4988 62.5498 18.4192V2.85455C62.5498 1.7785 61.6785 0.907288 60.6025 0.907288C59.5264 0.907288 58.6517 1.7785 58.6517 2.85455V18.4192C58.6517 19.4988 59.5264 20.3701 60.6025 20.3701Z" fill="#000119"/>
<path d="M60.6025 101.359C59.5264 101.359 58.6517 102.23 58.6517 103.31V118.874C58.6517 119.95 59.5264 120.822 60.6025 120.822C61.6785 120.822 62.5498 119.95 62.5498 118.874V103.31C62.5498 102.23 61.6785 101.359 60.6025 101.359Z" fill="#000119"/>
<path d="M81.9226 26.4362C82.2419 26.6341 82.596 26.7278 82.9466 26.7278C83.5991 26.7278 84.2378 26.4015 84.6058 25.8045L92.8011 12.5691C93.3634 11.6527 93.0823 10.4551 92.1694 9.88587C91.253 9.32008 90.052 9.60118 89.4862 10.5176L81.2908 23.7565C80.725 24.6694 81.0062 25.8704 81.9226 26.4362" fill="#000119"/>
<path d="M39.2841 95.2928C38.3712 94.727 37.1667 95.0081 36.6009 95.9245L28.4056 109.16C27.8398 110.076 28.1244 111.274 29.0373 111.843C29.3601 112.041 29.7107 112.135 30.0613 112.135C30.7139 112.135 31.3526 111.808 31.7205 111.211L39.9159 97.9726C40.4817 97.0597 40.197 95.8586 39.2841 95.2928" fill="#000119"/>
<path d="M98.0359 42.8293C98.3483 42.8293 98.6607 42.7567 98.9557 42.6003L112.688 35.2449C113.639 34.7381 113.996 33.558 113.486 32.6069C112.979 31.6628 111.799 31.3018 110.848 31.812L97.1161 39.1638C96.165 39.6706 95.8074 40.8543 96.3177 41.8019C96.6683 42.4579 97.3417 42.8293 98.0359 42.8293" fill="#000119"/>
<path d="M22.2231 79.2541L8.48437 86.606C7.53675 87.1163 7.17922 88.293 7.68601 89.2441C8.04007 89.9001 8.70998 90.2749 9.40768 90.2749C9.71661 90.2749 10.029 90.1986 10.3241 90.0422L24.0594 82.6903C25.0105 82.18 25.368 80.9999 24.8612 80.0488C24.3509 79.1047 23.1742 78.7471 22.2231 79.2539" fill="#000119"/>
<path d="M118.644 58.8087H118.638L103.06 58.8536C101.984 58.8564 101.113 59.7318 101.116 60.8078C101.119 61.8804 101.991 62.7517 103.064 62.7517H103.069L118.648 62.7068C119.724 62.704 120.595 61.8286 120.591 60.7526C120.589 59.6765 119.717 58.8087 118.644 58.8087Z" fill="#000119"/>
<path d="M20.0673 61.0375C20.0645 59.9614 19.1925 59.0936 18.1165 59.0936H18.1137L2.53524 59.1389C1.45572 59.1416 0.587939 60.0172 0.591411 61.0932C0.594187 62.1693 1.46613 63.0369 2.53871 63.0369H2.54426L18.1227 62.9917C19.1988 62.9889 20.0666 62.1135 20.0666 61.0375" fill="#000119"/>
<path d="M112.498 86.9947L98.8222 79.5213C97.878 79.0041 96.6944 79.3511 96.1772 80.2954C95.6634 81.2395 96.0105 82.4267 96.9547 82.9404L110.628 90.4103C110.926 90.5769 111.245 90.6532 111.561 90.6532C112.249 90.6532 112.922 90.2853 113.273 89.6396C113.79 88.692 113.439 87.5085 112.498 86.9947" fill="#000119"/>
<path d="M24.259 38.7663L10.5862 31.293C9.64202 30.7758 8.45487 31.1228 7.94114 32.0671C7.42394 33.0112 7.77093 34.1984 8.71522 34.7121L22.388 42.1854C22.6866 42.3487 23.0059 42.425 23.3218 42.425C24.0125 42.425 24.6824 42.0571 25.0365 41.4115C25.5502 40.4673 25.2031 39.2802 24.259 38.7665" fill="#000119"/>
<path d="M84.7817 95.8471C84.2124 94.9376 83.0114 94.6564 82.0985 95.2291C81.1856 95.7984 80.9079 97.0029 81.4807 97.9123L89.7385 111.127C90.1064 111.717 90.7417 112.04 91.3908 112.04C91.7448 112.04 92.0989 111.946 92.4217 111.745C93.3346 111.176 93.6123 109.971 93.043 109.058L84.7817 95.8471V95.8471Z" fill="#000119"/>
<path d="M36.4298 25.8634C36.7978 26.4535 37.4364 26.7798 38.0821 26.7798C38.4361 26.7798 38.7937 26.6826 39.113 26.4847C40.0259 25.912 40.3036 24.7076 39.7343 23.7981L31.473 10.5834C30.9038 9.67397 29.7027 9.39288 28.7864 9.96562C27.8735 10.5349 27.5992 11.7394 28.1685 12.6488L36.4298 25.8634Z" fill="#000119"/>
</svg>
