<svg width="121" height="106" viewBox="0 0 121 106" fill="none" xmlns="http://www.w3.org/2000/svg">
<path d="M26.1394 80.8461C25.3366 80.4494 24.3637 80.7704 23.9608 81.5701L13.0144 103.463C12.6146 104.262 12.9389 105.238 13.7417 105.641C13.9746 105.758 14.2234 105.815 14.4658 105.815C15.0639 105.815 15.6369 105.484 15.9202 104.917L26.8666 83.0215C27.2664 82.2219 26.9422 81.246 26.1394 80.8462" fill="#000119"/>
<path d="M62.653 80.8461C61.8534 80.4494 60.8774 80.7704 60.4744 81.5701L49.528 103.463C49.1282 104.262 49.4525 105.238 50.2553 105.641C50.4883 105.758 50.7338 105.815 50.9794 105.815C51.5744 105.815 52.1505 105.484 52.4338 104.917L63.3802 83.0215C63.78 82.2219 63.4558 81.246 62.653 80.8462" fill="#000119"/>
<path d="M99.1632 80.8461C98.3604 80.4494 97.3876 80.7704 96.9846 81.5701L86.0383 103.463C85.6385 104.262 85.9627 105.238 86.7655 105.641C86.9984 105.758 87.244 105.815 87.4896 105.815C88.0846 105.815 88.6607 105.484 88.9441 104.917L99.8904 83.0215C100.29 82.2219 99.966 81.246 99.1632 80.8462" fill="#000119"/>
<path d="M40.4141 68.493H96.2665C96.638 68.493 97.0253 68.4931 97.3873 68.5339V68.493C106.511 68.493 113.931 61.0726 113.931 51.9459C113.931 42.8256 106.511 35.4021 97.3873 35.4021C96.0966 35.4021 94.7554 35.5722 93.3954 35.9059C92.9547 36.0192 92.4887 35.9373 92.1046 35.6854C91.7268 35.4336 91.4718 35.0338 91.3994 34.5836C89.5514 22.8092 79.5621 14.2619 67.6461 14.2619C54.3733 14.2619 43.5717 25.0634 43.5717 38.3394C43.5717 38.9943 43.6158 39.6365 43.6692 40.2756C43.71 40.7572 43.5337 41.2358 43.1844 41.5727C42.8381 41.9127 42.3564 42.0732 41.8747 42.026C41.3962 41.9723 40.9082 41.9411 40.4139 41.9411C33.0943 41.9411 27.1411 47.8975 27.1411 55.2171C27.1411 62.5367 33.0943 68.4931 40.4139 68.4931L40.4141 68.493ZM40.3258 38.6921C40.3232 38.5757 40.3232 38.4592 40.3232 38.3396C40.3232 23.2754 52.5824 11.013 67.6466 11.013C80.6047 11.013 91.5542 19.9131 94.2963 32.4115C95.3415 32.2382 96.3741 32.1534 97.3878 32.1534C108.3 32.1534 117.181 41.0312 117.181 51.9461C117.181 62.861 108.3 71.739 97.3784 71.739H82.6164H40.4145C31.3036 71.739 23.8895 64.3281 23.8895 55.2171C23.8895 46.1345 31.2564 38.7393 40.3264 38.6921" fill="#000119"/>
<path d="M20.5195 21.2084C21.5332 21.2084 22.5659 21.2933 23.6079 21.4634C26.3532 8.96502 37.3026 0.0681763 50.2575 0.0681763C55.9023 0.0681763 61.3141 1.77134 65.9168 5.00141C66.6535 5.51457 66.8298 6.52512 66.3166 7.25865C65.8003 7.99533 64.7897 8.17164 64.0531 7.65848C60.0013 4.81879 55.2286 3.31401 50.2575 3.31401C38.3447 3.31401 28.3523 11.8613 26.5043 23.6357C26.435 24.0859 26.18 24.4857 25.7991 24.7376C25.4213 24.9894 24.9553 25.0681 24.5114 24.9612C23.1546 24.6275 21.8134 24.4575 20.5195 24.4575C11.396 24.4575 3.97563 31.8811 3.97563 41.0014C3.97563 49.5111 10.3476 56.5851 18.7975 57.4572C19.6915 57.5483 20.3401 58.348 20.2488 59.239C20.1607 60.0764 19.4554 60.6967 18.6337 60.6967C18.5771 60.6967 18.5204 60.6941 18.4637 60.6916C8.35165 59.6464 0.723572 51.184 0.723572 41.0027C0.723572 30.0878 9.60465 21.2098 20.5195 21.2098" fill="#000119"/>
<path d="M73.3681 80.4908C73.1264 80.4908 72.8622 80.5631 72.6661 80.7102C72.4769 80.852 72.3366 81.0513 72.2712 81.2806V81.3025L69.4412 92.8858V92.9078C69.3661 93.2677 69.5074 93.6797 69.7922 93.917C69.9995 94.0928 70.2701 94.2022 70.5381 94.2022C70.6249 94.2022 70.7165 94.1834 70.8233 94.1583H70.8452L75.7374 92.9517L73.1707 103.482C73.1693 103.489 73.1721 103.497 73.1707 103.504C73.1126 103.761 73.1434 104.069 73.2804 104.294C73.422 104.527 73.6602 104.701 73.9166 104.776H73.9385H73.9824C74.0873 104.797 74.1472 104.82 74.2676 104.82C74.6799 104.82 75.1079 104.572 75.2987 104.206V104.184L82.8673 87.9498C83.0213 87.614 82.9339 87.1747 82.7138 86.8748C82.6955 86.85 82.7124 86.8098 82.6918 86.7871L82.5163 86.9187L82.6699 86.7652C82.4561 86.5514 82.1646 86.4147 81.8582 86.4141C81.7381 86.4141 81.6654 86.4351 81.573 86.458L76.9002 87.6207L78.9623 82.0265C78.9694 82.0125 78.9776 81.997 78.9843 81.9827C79.0435 81.8544 79.094 81.726 79.094 81.5658C79.094 81.2811 78.9664 80.9919 78.7649 80.798C78.557 80.5977 78.2604 80.4909 77.9751 80.4909H73.3681L73.3681 80.4908ZM73.3681 81.4561H77.9751C78.0449 81.4561 78.0495 81.466 78.0848 81.4999C78.1264 81.54 78.1068 81.5325 78.1068 81.5657C78.1068 81.5375 78.1081 81.5402 78.0848 81.5877V81.6316L78.0628 81.6535L75.6715 88.1472L75.3425 89.0028L76.2419 88.7834L81.8142 87.4233C81.8719 87.4089 81.9027 87.4013 81.8581 87.4013C81.8973 87.4014 81.9283 87.411 81.9678 87.4452C81.9713 87.448 81.9643 87.4638 81.9678 87.4671C81.9934 87.4835 82.0197 87.4675 81.9898 87.5329L74.4211 103.745C74.4122 103.762 74.4045 103.756 74.3991 103.767C74.3727 103.822 74.3757 103.833 74.2675 103.833C74.2939 103.833 74.2311 103.836 74.2017 103.833C74.1709 103.824 74.1671 103.818 74.1579 103.811C74.1486 103.804 74.1446 103.782 74.1359 103.767C74.1175 103.737 74.1046 103.761 74.1139 103.723L76.8781 92.3812L77.0756 91.5914L76.2858 91.7889L70.6038 93.2148H70.5818C70.6275 93.2029 70.5945 93.2148 70.538 93.2148C70.469 93.2148 70.4642 93.2014 70.4283 93.1709C70.3918 93.1406 70.3981 93.1418 70.4063 93.1271V93.1051L73.2144 81.5657V81.5437C73.2207 81.5263 73.231 81.5203 73.2582 81.4998C73.2867 81.4785 73.3103 81.456 73.3679 81.456L73.3681 81.4561Z" fill="#000119"/>
<path d="M111.147 80.4908C110.905 80.4908 110.641 80.5631 110.445 80.7102C110.255 80.852 110.115 81.0513 110.05 81.2806V81.3025L107.22 92.8858V92.9078C107.145 93.2677 107.286 93.6797 107.571 93.917C107.778 94.0928 108.049 94.2022 108.317 94.2022C108.403 94.2022 108.495 94.1834 108.602 94.1583H108.624L113.516 92.9517L110.949 103.482C110.948 103.489 110.951 103.497 110.949 103.504C110.891 103.761 110.922 104.069 111.059 104.294C111.201 104.527 111.439 104.701 111.695 104.776H111.717H111.761C111.866 104.797 111.926 104.82 112.046 104.82C112.458 104.82 112.887 104.572 113.077 104.206V104.184L120.646 87.9498C120.8 87.614 120.712 87.1747 120.492 86.8748C120.474 86.85 120.491 86.8098 120.47 86.7871L120.295 86.9187L120.448 86.7652C120.235 86.5514 119.943 86.4147 119.637 86.4141C119.517 86.4141 119.444 86.4351 119.352 86.458L114.679 87.6207L116.741 82.0265C116.748 82.0125 116.756 81.997 116.763 81.9827C116.822 81.8544 116.873 81.726 116.873 81.5658C116.873 81.2811 116.745 80.9919 116.543 80.798C116.336 80.5977 116.039 80.4909 115.754 80.4909H111.147L111.147 80.4908ZM111.147 81.4561H115.754C115.824 81.4561 115.828 81.466 115.863 81.4999C115.905 81.54 115.885 81.5325 115.885 81.5657C115.885 81.5375 115.887 81.5402 115.863 81.5877V81.6316L115.841 81.6535L113.45 88.1472L113.121 89.0028L114.021 88.7834L119.593 87.4233C119.65 87.4089 119.681 87.4013 119.637 87.4013C119.676 87.4014 119.707 87.411 119.746 87.4452C119.75 87.448 119.743 87.4638 119.746 87.4671C119.772 87.4835 119.798 87.4675 119.768 87.5329L112.2 103.745C112.191 103.762 112.183 103.756 112.178 103.767C112.151 103.822 112.154 103.833 112.046 103.833C112.072 103.833 112.01 103.836 111.98 103.833C111.949 103.824 111.946 103.818 111.936 103.811C111.927 103.804 111.923 103.782 111.914 103.767C111.896 103.737 111.883 103.761 111.892 103.723L114.657 92.3812L114.854 91.5914L114.064 91.7889L108.382 93.2148H108.36C108.406 93.2029 108.373 93.2148 108.317 93.2148C108.248 93.2148 108.243 93.2014 108.207 93.1709C108.17 93.1406 108.177 93.1418 108.185 93.1271V93.1051L110.993 81.5657V81.5437C110.999 81.5263 111.01 81.5203 111.037 81.4998C111.065 81.4785 111.089 81.456 111.147 81.456L111.147 81.4561Z" fill="#000119"/>
<path d="M35.5895 80.4908C35.3478 80.4908 35.0836 80.5631 34.8875 80.7102C34.6983 80.852 34.558 81.0513 34.4926 81.2806V81.3025L31.6626 92.8858V92.9078C31.5875 93.2677 31.7289 93.6797 32.0136 93.917C32.2209 94.0928 32.4915 94.2022 32.7595 94.2022C32.8463 94.2022 32.9379 94.1834 33.0447 94.1583H33.0667L37.9589 92.9517L35.3921 103.482C35.3907 103.489 35.3935 103.497 35.3921 103.504C35.334 103.761 35.3648 104.069 35.5018 104.294C35.6434 104.527 35.8816 104.701 36.138 104.776H36.16H36.2038C36.3087 104.797 36.3686 104.82 36.489 104.82C36.9013 104.82 37.3294 104.572 37.5201 104.206V104.184L45.0888 87.9498C45.2427 87.614 45.1553 87.1747 44.9352 86.8748C44.9169 86.85 44.9338 86.8098 44.9132 86.7871L44.7377 86.9187L44.8913 86.7652C44.6775 86.5514 44.386 86.4147 44.0796 86.4141C43.9595 86.4141 43.8868 86.4351 43.7944 86.458L39.1216 87.6207L41.1838 82.0265C41.1908 82.0125 41.199 81.997 41.2057 81.9827C41.2649 81.8544 41.3154 81.726 41.3154 81.5658C41.3154 81.2811 41.1879 80.9919 40.9863 80.798C40.7784 80.5977 40.4819 80.4909 40.1966 80.4909H35.5896L35.5895 80.4908ZM35.5895 81.4561H40.1965C40.2663 81.4561 40.2709 81.466 40.3062 81.4999C40.3478 81.54 40.3282 81.5325 40.3282 81.5657C40.3282 81.5375 40.3296 81.5402 40.3062 81.5877V81.6316L40.2842 81.6535L37.893 88.1472L37.5639 89.0028L38.4633 88.7834L44.0356 87.4233C44.0933 87.4089 44.1242 87.4013 44.0795 87.4013C44.1187 87.4014 44.1497 87.411 44.1892 87.4452C44.1927 87.448 44.1857 87.4638 44.1892 87.4671C44.2148 87.4835 44.2411 87.4675 44.2112 87.5329L36.6425 103.745C36.6336 103.762 36.6259 103.756 36.6205 103.767C36.5941 103.822 36.5971 103.833 36.4889 103.833C36.5153 103.833 36.4526 103.836 36.4231 103.833C36.3923 103.824 36.3885 103.818 36.3793 103.811C36.37 103.804 36.3661 103.782 36.3573 103.767C36.3389 103.737 36.326 103.761 36.3353 103.723L39.0995 92.3812L39.297 91.5914L38.5072 91.7889L32.8252 93.2148H32.8033C32.8489 93.2029 32.8159 93.2148 32.7594 93.2148C32.6904 93.2148 32.6856 93.2014 32.6497 93.1709C32.6132 93.1406 32.6195 93.1418 32.6277 93.1271V93.1051L35.4358 81.5657V81.5437C35.4421 81.5263 35.4524 81.5203 35.4797 81.4998C35.5082 81.4785 35.5317 81.456 35.5893 81.456L35.5895 81.4561Z" fill="#000119"/>
</svg>
