<svg width="417" height="421" viewBox="0 0 417 421" fill="none" xmlns="http://www.w3.org/2000/svg">
<path d="M210.57 310.065C158.335 310.065 115.849 267.567 115.849 215.332C115.849 163.109 158.335 120.611 210.57 120.611C262.804 120.611 305.29 163.109 305.29 215.332C305.29 267.567 262.804 310.065 210.57 310.065ZM210.57 107.228C150.958 107.228 102.465 155.72 102.465 215.332C102.465 274.944 150.958 323.449 210.57 323.449C270.169 323.449 318.674 274.944 318.674 215.332C318.674 155.72 270.169 107.228 210.57 107.228Z" fill="#000119"/>
<path d="M210.57 75.5367C214.264 75.5367 217.255 72.5453 217.255 68.8389V15.4001C217.255 11.7056 214.264 8.71448 210.57 8.71448C206.875 8.71448 203.872 11.7056 203.872 15.4001V68.8389C203.872 72.5453 206.875 75.5367 210.57 75.5367Z" fill="#000119"/>
<path d="M210.57 353.599C206.875 353.599 203.872 356.59 203.872 360.297V413.735C203.872 417.429 206.875 420.42 210.57 420.42C214.264 420.42 217.255 417.429 217.255 413.735V360.297C217.255 356.59 214.264 353.599 210.57 353.599Z" fill="#000119"/>
<path d="M283.768 96.3637C284.865 97.0435 286.08 97.3652 287.284 97.3652C289.525 97.3652 291.717 96.2447 292.981 94.1949L344.032 10.2145C345.962 7.0683 344.997 2.95676 341.863 1.00227C338.717 -0.940294 334.593 0.0248206 332.65 3.17106L281.599 87.1637C279.657 90.298 280.622 94.4211 283.768 96.3637Z" fill="#000119"/>
<path d="M137.377 332.772C134.242 330.829 130.107 331.794 128.164 334.941L100.027 380.383C98.0843 383.529 99.0616 387.641 102.196 389.595C103.304 390.274 104.508 390.596 105.712 390.596C107.952 390.596 110.145 389.475 111.408 387.426L139.546 341.972C141.488 338.838 140.511 334.714 137.377 332.772" fill="#000119"/>
<path d="M339.092 152.647C340.164 152.647 341.237 152.397 342.25 151.861L389.396 126.607C392.661 124.867 393.889 120.815 392.137 117.55C390.397 114.308 386.345 113.069 383.079 114.821L335.934 140.062C332.668 141.802 331.441 145.866 333.193 149.119C334.396 151.372 336.708 152.647 339.092 152.647" fill="#000119"/>
<path d="M78.8009 277.705L3.5318 328.215C0.2783 329.966 -0.949197 334.007 0.79077 337.272C2.00636 339.524 4.30641 340.811 6.70184 340.811C7.76251 340.811 8.83511 340.549 9.8481 340.012L85.1053 289.503C88.3707 287.751 89.5982 283.699 87.8582 280.434C86.1063 277.192 82.0663 275.965 78.8009 277.705Z" fill="#000119"/>
<path d="M409.846 207.509H409.827L356.341 207.663C352.646 207.673 349.655 210.678 349.667 214.373C349.676 218.055 352.67 221.047 356.353 221.047H356.372L409.858 220.893C413.552 220.883 416.544 217.878 416.532 214.183C416.522 210.489 413.528 207.509 409.846 207.509Z" fill="#000119"/>
<path d="M71.399 215.161C71.3894 211.467 68.3957 208.487 64.7013 208.487H64.6918L11.2057 208.643C7.49928 208.652 4.51992 211.658 4.53183 215.353C4.54137 219.047 7.53505 222.026 11.2176 222.026H11.2366L64.7228 221.871C68.4172 221.861 71.3966 218.856 71.3966 215.161" fill="#000119"/>
<path d="M388.746 304.282L341.791 278.623C338.55 276.847 334.486 278.038 332.71 281.28C330.946 284.522 332.138 288.598 335.38 290.362L382.323 316.008C383.348 316.58 384.444 316.842 385.529 316.842C387.888 316.842 390.2 315.579 391.404 313.362C393.18 310.109 391.976 306.046 388.746 304.282" fill="#000119"/>
<path d="M85.7907 138.697L38.8474 113.039C35.6058 111.263 31.53 112.454 29.7662 115.696C27.9904 118.938 29.1818 123.014 32.4238 124.778L79.3672 150.436C80.3921 150.997 81.4885 151.259 82.573 151.259C84.9446 151.259 87.2446 149.996 88.4602 147.779C90.224 144.537 89.0323 140.462 85.7907 138.698" fill="#000119"/>
<path d="M293.585 334.675C291.63 331.552 287.507 330.587 284.373 332.553C281.238 334.508 280.285 338.643 282.251 341.765L327.532 410.715C328.795 412.741 330.976 413.849 333.205 413.849C334.42 413.849 335.636 413.527 336.744 412.836C339.878 410.881 340.832 406.746 338.877 403.612L293.585 334.675Z" fill="#000119"/>
<path d="M127.577 94.3969C128.84 96.4229 131.033 97.5434 133.25 97.5434C134.465 97.5434 135.693 97.2095 136.789 96.5302C139.923 94.5638 140.877 90.4287 138.922 87.3063L89.0318 16.7146C87.0773 13.5922 82.9538 12.6271 79.8076 14.5935C76.6733 16.548 75.7318 20.6834 77.6863 23.8058L127.577 94.3969Z" fill="#000119"/>
</svg>
