<svg width="50" height="50" viewBox="0 0 50 50" fill="none" xmlns="http://www.w3.org/2000/svg">
<circle cx="25" cy="25" r="23.5" fill="#FFF1E8" fill-opacity="0.8" stroke="black" stroke-width="3"/>
<path d="M22.264 29.008C22.184 28.176 22.224 27.472 22.384 26.896C22.544 26.304 22.76 25.8 23.032 25.384C23.32 24.952 23.64 24.584 23.992 24.28C24.36 23.96 24.696 23.656 25 23.368C25.32 23.08 25.584 22.784 25.792 22.48C26 22.16 26.104 21.784 26.104 21.352C26.104 20.792 25.944 20.344 25.624 20.008C25.32 19.672 24.768 19.504 23.968 19.504C23.712 19.504 23.44 19.536 23.152 19.6C22.864 19.648 22.576 19.728 22.288 19.84C22 19.936 21.72 20.056 21.448 20.2C21.192 20.328 20.96 20.464 20.752 20.608L19.552 18.304C20.16 17.888 20.856 17.544 21.64 17.272C22.44 17 23.4 16.864 24.52 16.864C26.024 16.864 27.2 17.232 28.048 17.968C28.896 18.688 29.32 19.664 29.32 20.896C29.32 21.712 29.208 22.392 28.984 22.936C28.776 23.464 28.512 23.92 28.192 24.304C27.872 24.672 27.52 25 27.136 25.288C26.752 25.576 26.4 25.888 26.08 26.224C25.76 26.544 25.488 26.92 25.264 27.352C25.04 27.784 24.928 28.336 24.928 29.008H22.264ZM21.784 32.416C21.784 31.856 21.96 31.416 22.312 31.096C22.664 30.76 23.128 30.592 23.704 30.592C24.312 30.592 24.792 30.76 25.144 31.096C25.496 31.416 25.672 31.856 25.672 32.416C25.672 32.976 25.496 33.424 25.144 33.76C24.792 34.096 24.312 34.264 23.704 34.264C23.128 34.264 22.664 34.096 22.312 33.76C21.96 33.424 21.784 32.976 21.784 32.416Z" fill="black"/>
</svg>
